<?xml version="1.0" encoding="UTF-8" standalone="no"?>
<!-- Created with Inkscape (http://www.inkscape.org/) -->

<svg
   width="80mm"
   height="80mm"
   viewBox="0 0 79.999999 79.999998"
   version="1.1"
   id="svg1"
   sodipodi:docname="logo_short_square.svg"
   inkscape:version="1.4.3 (0d15f75, 2025-12-25)"
   inkscape:export-filename="logo_short_square.png"
   inkscape:export-xdpi="650.23999"
   inkscape:export-ydpi="650.23999"
   xmlns:inkscape="http://www.inkscape.org/namespaces/inkscape"
   xmlns:sodipodi="http://sodipodi.sourceforge.net/DTD/sodipodi-0.dtd"
   xmlns="http://www.w3.org/2000/svg"
   xmlns:svg="http://www.w3.org/2000/svg">
  <sodipodi:namedview
     id="namedview1"
     pagecolor="#ffffff"
     bordercolor="#000000"
     borderopacity="0.25"
     inkscape:showpageshadow="2"
     inkscape:pageopacity="0.0"
     inkscape:pagecheckerboard="0"
     inkscape:deskcolor="#d1d1d1"
     inkscape:document-units="mm"
     inkscape:zoom="1.5022395"
     inkscape:cx="200.36752"
     inkscape:cy="157.43162"
     inkscape:window-width="1512"
     inkscape:window-height="846"
     inkscape:window-x="0"
     inkscape:window-y="34"
     inkscape:window-maximized="0"
     inkscape:current-layer="layer1" />
  <defs
     id="defs1" />
  <g
     inkscape:groupmode="layer"
     id="layer2"
     inkscape:label="bg"
     style="display:none"
     transform="translate(-9.9999996,-29.354847)" />
  <g
     inkscape:label="Layer 1"
     inkscape:groupmode="layer"
     id="layer1"
     transform="translate(-17.523974,-94.23694)">
    <path
       style="font-size:50.8px;font-family:Honk;-inkscape-font-specification:'Honk, Normal';stroke-width:0.312578"
       d="m 17.523976,127.27522 h 2.400599 q 0,1.65038 0,2.64063 0,0.99025 0,1.92048 0,0.90022 0,2.3406 0,0 0,0 0,0 0,0 0,0 0,0 0,0 0,0 0,1.50036 0,2.28056 0,0.78019 0,1.32034 0,0.51011 0,1.23032 0,0.69016 0,2.07049 h -2.400599 z m 18.664662,0 v 13.80342 h -2.4006 q 0,-1.38033 0,-2.07049 0,-0.72021 0,-1.23032 0,-0.54015 0,-1.32034 0,-0.7802 0,-2.28056 0,0 0,0 0,0 0,0 0,0 0,0 0,0 0,0 0,-1.44038 0,-2.3406 0,-0.93023 0,-1.92048 0,-0.99025 0,-2.64063 z m 0,3.06075 h -2.4006 q 0,-0.90022 0,-1.83046 0,-0.96022 0,-1.77044 0,-0.8102 0,-1.29032 0,-0.51012 0,-0.51012 0,0 0,0 0,0 0,0 0,0 0,-0.0901 0,-0.0901 0,-0.36009 0,-0.30007 0,-0.90022 0,-0.63015 0,-1.65042 0,0 0,0 0,0 0,0 0,0 -1.050262,0 -1.020256,0 -2.4006,0 -1.380345,0 -2.430608,0 -1.020254,0 -1.020254,0 0,0 0,-0.33009 0,-0.36008 0,-0.81019 0,-0.45011 0,-0.7802 0,-0.36009 0,-0.36009 0.420104,0 0.930231,0 0.510128,0 1.260316,0 0.780195,0 1.860464,0 1.08027,0 2.610652,0 0.210053,0 0.630157,0 0.420106,0 0.810203,0 0.390096,0 0.540133,0 0.120032,0 0.210053,0 0.12003,0 0.210053,0 0.12003,0 0.240062,0 0,0.93024 0,2.37059 0,1.44035 0,3.03075 0,1.5904 0,3.00076 0,1.41035 0,2.28057 z m -18.664662,0 q 0,-0.87022 0,-2.28058 0,-1.41034 0,-3.00074 0,-1.5904 0,-3.03075 0,-1.44036 0,-2.37059 0.12003,0 0.240061,0 0.09002,0 0.210052,0 0.09002,0 0.210052,0 0.150037,0 0.540136,0 0.390096,0 0.8102,0 0.420106,0 0.630158,0 1.020256,0 1.830456,0 0.840211,0 1.470368,0 0.660165,0 1.170293,0 0.540134,0 0.930232,0 0.420105,0 0.720181,0 0.330082,0 0.600149,0 0,0 0,0.36009 0,0.33007 0,0.7802 0,0.45011 0,0.81019 0,0.33009 0,0.33009 0,0 -0.72018,0 -0.690172,0 -1.740433,0 -1.020256,0 -2.07052,0 -1.020254,0 -1.740432,0 -0.690174,0 -0.690174,0 0,0 0,0 0,0 0,0 0,1.02025 0,1.6504 0,0.60015 0,0.90023 0,0.27007 0,0.36009 0,0.0901 0,0.0901 0,0 0,0 0,0 0,0 0,0 0,0.51011 0,0.48012 0,1.29032 0,0.81021 0,1.77045 0,0.93024 0,1.83046 z m 18.664662,-1.80048 h -2.4006 q 0,0 0,-1.26027 0,-1.26034 0,-3.12079 0,-1.89047 0,-3.75093 0,-1.89049 0,-3.15081 0,-1.26031 0,-1.26031 0,0 0,0 0,0 0,0 0,0 0,0 0,0 0,0 0,0 0,0 0,0 0,0 0,0 0,0 0,0 0,0 -1.020256,0 -2.010503,0 -0.990248,0 -1.890472,0 -0.870217,0 -1.650412,0 -0.780195,0 -1.410353,0 -0.210051,-0.45011 -0.210051,-1.20029 0,-0.75019 0.210051,-1.2003 0,0 0,0 0,0 0,0 0,0 0,0 0,0 0,0 0,0 0.930232,0 0.960241,0 2.340587,0 1.410352,0 2.790694,0 1.410354,0 2.340586,0 0.960241,0 0.960241,0 0,1.38033 0,2.91072 0,1.53038 0,3.1508 0,1.5904 0,3.18079 0,1.5604 0,3.03078 0,1.44034 0,2.67061 z m -18.664662,0 q 0,-1.23027 0,-2.67062 0,-1.47038 0,-3.03078 0,-1.59039 0,-3.18079 0,-1.62042 0,-3.1508 0,-1.53039 0,-2.91072 0,0 0.96024,0 0.930231,0 2.310576,0 1.410353,0 2.790697,0 1.410352,0 2.340584,0 0.960241,0 0.960241,0 0,0 0,0 0,0 0,0 0,0 0,0 0,0 0,0 0.240059,0.45011 0.240059,1.2003 0,0.75018 -0.240059,1.20029 -0.630156,0 -1.410352,0 -0.780196,0 -1.68042,0 -0.870217,0 -1.860465,0 -0.96024,0 -2.010502,0 0,0 0,0 0,0 0,0 0,0 0,0 0,0 0,0 0,0 0,0 0,0 0,0 0,0 0,0 0,0 0,0 0,0 0,1.26031 0,1.26032 0,3.15081 0,1.86046 0,3.75093 0,1.86046 0,3.1208 0,1.26027 0,1.26027 z m 18.664662,12.00302 v 7.08176 q 0,0 0,0.7502 0,0.72018 0,1.80044 0,1.08029 0,2.16055 0,1.08028 0,1.80046 0,0.75018 0,0.75018 0,0 -0.930233,0 -0.900227,0 -2.28057,0 -1.350338,0 -2.730683,0 -1.380345,0 -2.370591,0 -0.96024,0 -1.050263,0 0,0 0,0 0,0 0,0 0,0 0,0 0,0 0,0 0,0 0,0 0,0 0,0 0,0 0,0 0,0 0,0 0,0 0,0 0,0 0,0 0,0 0,0 -0.09002,0 -1.050261,0 -0.96024,0 -2.340583,0 -1.380347,0 -2.730683,0 -1.350339,0 -2.250562,0 -0.930233,0 -0.930233,0 v -14.34357 h 2.400599 v 11.943 q 0,0 0,0 0,0 0,0 0,0 0,0 0,0 0.900225,0 0.930232,0 2.250562,0 1.350339,0 2.670667,0 1.350338,0 2.250561,0 0.930233,0 0.930233,0 0.09002,0 0.60015,-0.45014 0.510128,-0.45011 1.230305,-1.14026 0.720181,-0.69019 1.410354,-1.41037 0.690173,-0.69018 1.140286,-1.20028 0.48012,-0.51015 0.48012,-0.60016 v -7.14179 z m -2.400607,-6.72168 h 2.400599 q 0,0 0,1.26031 0,1.26032 0,3.15079 0,1.86047 0,3.75095 0,1.86045 0,3.12079 0,1.2603 0,1.2603 0,0 0,0 0,0 0,0 0,0 0,0 0,0 0,0 0,0 0,0 0,0 0,0 0,0 0,0 0,0 0,0 0,0 0,0 0,0 0,0 0,0 0,0 0,0 1.410352,0 1.410352,0 3.480869,0 2.070517,0 4.141036,0 2.070515,0 3.480868,0 1.410354,0 1.410354,0 0,0.57013 0,1.20029 0,0.60015 0,1.20029 0,0 0,0 0,0 0,0 0,0 0,0 0,0 0,0 0,0 0,0 0,0 -1.200302,0 -1.170292,0 -3.030757,0 -1.830456,0 -3.930981,0 -2.100525,0 -3.960988,0 -1.830458,0 -3.00075,0 -1.2003,0 -1.2003,0 0,0 0,0 0,0 0,0 0,0 0,0 0,0 0,0 0,0 0,-1.08026 0,-1.08028 0,-2.7607 0,-1.7104 0,-3.63088 0,-1.92048 0,-3.60091 0,-1.71044 0,-2.79069 z m 31.927972,-3.48086 h -2.400601 v -9.54237 q 0,-0.0901 -0.480119,-0.60016 -0.450112,-0.51013 -1.140284,-1.20032 -0.690174,-0.72017 -1.410352,-1.41035 -0.720181,-0.69018 -1.230309,-1.14028 -0.510127,-0.4501 -0.600148,-0.4501 0,0 0,0 0,0 0,0 0,0 0,0 0,0 0,0 -0.360091,0 -1.350337,0 -0.96024,0 -2.220556,0 -1.230305,0 -2.460612,0 -1.200301,0 -2.040511,0 -0.840208,0 -0.990247,0 0,-0.60016 0,-1.20031 0,-0.63016 0,-1.2003 0,0 0,0 0,0 0,0 0,0 0,0 0,0 0,0 0,0 0,0 0,0 1.170292,0 1.2003,0 3.030757,0 1.860464,0 3.96099,0 2.100522,0 3.93098,0 1.860465,0 3.030757,0 1.2003,0 1.2003,0 0,0 0,0 0,0 0,0 0,0 0,0 0,0 0,0 0,0 0,0.84021 0,0.84021 0,2.28057 0,1.44035 0,3.21082 0,1.77042 0,3.6609 0,1.89048 0,3.63091 0,1.74043 0,3.12078 z m 0,3.48086 q 0,0 0,1.08028 0,1.08025 0,2.79069 0,1.68043 0,3.60091 0,1.92048 0,3.63088 0,1.68042 0,2.7607 0,1.08026 0,1.08026 0,0 0,0 0,0 0,0 0,0 0,0 0,0 0,0 0,0 -1.2003,0 -1.170292,0 -3.030757,0 -1.830458,0 -3.93098,0 -2.100526,0 -3.96099,0 -1.830457,0 -3.030757,0 -1.170292,0 -1.170292,0 0,0 0,0 0,0 0,0 0,0 0,0 0,0 0,0 0,0 0,0 0,-0.60014 0,-1.20028 0,-0.63016 0,-1.20029 0,0 1.410352,0 1.410352,0 3.480868,0 2.070518,0 4.141037,0 2.070515,0 3.480867,0 1.410351,0 1.410351,0 0,0 0,0 0,0 0,0 0,0 0,0 0,0 0,0 0,0 0,0 0,0 0,0 0,0 0,0 0,0 0,0 0,0 0,0 0,0 0,0 0,0 0,0 0,0 0,-1.2603 0,-1.26035 0,-3.12079 0,-1.89048 0,-3.75095 0,-1.89047 0,-3.15079 0,-1.26031 0,-1.26031 z m -31.927972,-5.28134 q 0,0 0,-1.08024 0,-1.08027 0,-2.7607 0,-1.71042 0,-3.6309 0,-1.92049 0,-3.60091 0,-1.71041 0,-2.79068 0,-1.08027 0,-1.08027 0,0 0,0 0,0 0,0 0,0 0,0 0,0 0,0 0,0 1.2003,0 1.170292,0 3.00075,0 1.860463,0 3.960988,0 2.100525,0 3.930981,0 1.860465,0 3.030757,0 1.200302,0 1.200302,0 0,0 0,0 0,0 0,0 0,0 0,0 0,0 0,0 0,0 0,0 0,0.57013 0,1.2003 0,0.60015 0,1.20031 0,0 -1.410354,0 -1.410353,0 -3.480868,0 -2.070519,0 -4.141036,0 -2.070517,0 -3.480869,0 -1.410352,0 -1.410352,0 0,0 0,0 0,0 0,0 0,0 0,0 0,0 0,0 0,0 0,0 0,0 0,0 0,0 0,0 0,0 0,0 0,0 0,0 0,0 0,0 0,0 0,0 0,0 0,1.26029 0,1.26031 0,3.1508 0,1.86046 0,3.75093 0,1.86046 0,3.1208 0,1.26029 0,1.26029 z m 31.927972,14.34362 h -2.400601 q 0,0 0,-2.37061 0,-2.40061 0,-7.83197 0,0 0,-0.15002 0,-0.15004 0,-0.15004 0,0 0,-0.15004 0,-0.15003 0,-0.15003 0,-5.91148 0,-8.64216 0,-2.76069 0,-2.76069 h 2.400601 z m -31.927972,0 v -22.20556 h 2.400599 q 0,0 0,2.76069 0,2.73068 0,8.64216 0,0 0,0.15003 0,0.15004 0,0.15004 0,0 0,0.15004 0,0.15002 0,0.15002 0,5.43136 0,7.83197 0,2.37061 0,2.37061 z m 1.2003,-16.38411 h 1.140284 q 0,0 0,0.21005 0,0.21006 0,0.4201 0,0.21006 0,0.21006 0,0 1.200299,-0.18004 1.230308,-0.18006 3.00075,-0.42011 1.800449,-0.27007 3.570891,-0.51011 1.800451,-0.27008 3.000749,-0.45013 1.230307,-0.18002 1.230307,-0.18002 0,0 0,0.12002 0.03001,0.12003 0.06001,0.39009 0.06001,0.24006 0.120031,0.63015 0.06001,0.39009 0.09002,0.66017 0.06001,0.27006 0.06001,0.4201 0.03001,0.12002 0.03001,0.12002 0,0 -1.260314,0.18006 -1.230306,0.18004 -3.090771,0.4501 -1.830459,0.27008 -3.69092,0.54016 -1.830459,0.27005 -3.090774,0.4501 -1.230307,0.18004 -1.230307,0.18004 0,0 0,0.30007 0,0.27007 0,0.57015 0,0.27006 0,0.27006 h -1.140288 z m 29.467357,9.72243 h -1.140286 q 0,0 0,-0.21006 0,-0.21005 0,-0.4201 0,-0.21005 0,-0.21005 0,0 -1.230306,0.18003 -1.200298,0.18006 -3.000749,0.45012 -1.770443,0.24006 -3.570892,0.51012 -1.770441,0.24007 -3.000749,0.42011 -1.200299,0.18007 -1.200299,0.18007 0,0 -0.03001,-0.12005 0,-0.12005 -0.06001,-0.36009 -0.03001,-0.27006 -0.09002,-0.66017 -0.06001,-0.39009 -0.120031,-0.66016 -0.03001,-0.27007 -0.06001,-0.39008 0,-0.15004 0,-0.15004 0,0 1.230306,-0.18006 1.260316,-0.18003 3.090772,-0.4501 1.860465,-0.27007 3.690922,-0.54014 1.860464,-0.27006 3.090771,-0.45011 1.260315,-0.18003 1.260315,-0.18003 0,0 0,-0.27008 0,-0.30008 0,-0.57015 0,-0.30007 0,-0.30007 h 1.140284 z m 33.068284,-4.86122 v 17.40434 q 0,0 -1.29032,0 -1.260307,0 -3.300819,0 -2.010502,0 -4.261064,0 -2.250562,0 -4.29107,0 -2.010504,0 -3.300826,0 -1.260313,0 -1.260313,0 0,0 0,0 0,0 0,0 0,0 0,0 0,0 0,0 0,0 0,0 0,0 0,0 0,0 0,0 0,0 0,0 0,0 0,0 0,0 0,0 0,0 0,0 0,0 0,0 0,0 0,0 0,0 0,0 0,0 0,0 0,0 0,0 0,0 0,0 0,0 0,0 0,0 0,0 0,0 0,0 0,0 0,0 0,0 0,0 0,0 0,0 0,0 0,0 0,0 0,0 0,0 0,0 0,0 0,0 0,0 0,0 0,0 0,0 0,0 -0.150038,0 -0.150036,0 -0.900225,0 -0.750187,0 -2.52063,0 -1.740433,0 -4.861211,0 -3.120782,0 -8.072017,0 v -17.94448 h 2.4006 q 0,0 0,0 0,0 0,0 0,0 0,1.08028 0,1.08028 0,2.67066 0,1.59042 0,3.1808 0,1.59042 0,2.67067 0,1.08027 0,1.08027 0,0 0,0 0,0 0,0 0,0 0,0 0,0 0,0 0,0 0,0 0,0 0,0 0,0 0,0 0,0 0,0 0,0 0,0 0,0 1.140283,0 1.170294,0 2.970742,0 1.80045,0 3.84096,0 2.040509,0 3.840959,0 1.800449,0 2.940734,0 1.170293,0 1.170293,0 0,0 0,0 0,0 0,0 0,0 0,0 0,0 0,0 v 4.86122 q 0,0 0,0 0,0 0,0 0,0 0.960239,0 0.990247,0 2.28057,0 1.290322,0 2.250563,0 0.990244,0 0.990244,0 0,0 1.050264,0 1.08027,0 2.460614,0 1.380345,0 2.430609,0 1.080269,0 1.080269,0 0,0 0,0 0,0 0,0 v -15.00374 z m -34.208533,0.15004 0.06001,-17.91447 q 0,0 0,0 0,0 0,0 0,0 0,0 0,0 0,0 0.900223,0 1.77044,0 0.900224,0 1.740435,0 0.870217,0 1.650412,0 0.780194,0 1.410352,0 0.630158,0 1.08027,0 0.48012,0 0.690171,0 0.06001,0 0.390099,0 0.360089,0 0.990248,0 0.660163,0 1.530382,0 0.900223,0 1.980493,0 1.110278,0 2.400599,0 1.290322,0 2.730683,0 0,0 0,0 0,0 0,0 0,0 0,0 0,0.57014 0,1.2003 0,0.60015 0,1.20029 0,0 -0.630156,0 -0.630159,0 -1.470369,0 -0.840208,0 -1.470366,0 -0.630159,0 -0.630159,0 0,0 0,0 0,0 0,0 0,0 0,0 0,0 0,0 -0.03001,0 -0.930232,0.87022 -0.870216,0.84021 -2.220554,2.22056 -1.320329,1.35034 -2.820704,2.88071 -1.500374,1.53038 -2.850712,2.91074 -1.320331,1.38033 -2.16054,2.28057 -0.840209,0.87021 -0.840209,0.90022 0,0 0,0 0,0 0,0 0,0 0,0 0,0 0,0 0,0.27007 0,0.75018 0,0.45012 0,0.99024 0,0.54015 0,1.02026 0,0.45013 0,0.69018 z m 34.208533,-2.97076 h -2.40059 q 0,0 0,-1.26028 0,-1.26033 0,-3.12079 0,-1.89047 0,-3.75093 0,-1.89049 0,-3.15081 0,-1.26031 0,-1.26031 0,0 0,0 0,0 0,0 0,0 0,0 0,0 0,0 0,0 0,0 0,0 0,0 0,0 0,0 0,0 0,0 0,0 0,0 0,0 0,0 0,0 0,0 0,0 -1.410357,0 -1.410351,0 -3.480865,0 -2.070518,0 -4.141033,0 -2.070518,0 -3.480871,0 -1.410351,0 -1.410351,0 0,-0.60014 0,-1.20029 0,-0.63016 0,-1.2003 0,0 0,0 0,0 0,0 0,0 0,0 0,0 0,0 0,0 0,0 0,0 1.17029,0 1.200301,0 3.030758,0 1.860465,0 3.96099,0 2.100522,0 3.930978,0 1.860461,0 3.030761,0 1.20029,0 1.20029,0 0,0 0,0 0,0 0,0 0,0 0,0 0,0 0,0 0,0 0,1.08026 0,1.08028 0,2.7907 0,1.68042 0,3.6009 0,1.92048 0,3.63089 0,1.68044 0,2.76071 z m 0,8.94224 h -2.40059 q 0,0 0,-0.93022 0,-0.96024 0,-2.22056 0,-1.26031 0,-2.19055 0,-0.96023 0,-0.96023 0,0 0,0 0,0 0,0 0,0 0,0 0,0 0,0 0,0 0,-0.93024 0,-0.96024 0,-2.22055 0,-1.26031 0,-2.19053 0,-0.96024 0,-0.96024 h 2.40059 z m -17.704412,-4.4411 q 0,0 0,-1.11027 0,-1.14029 0,-2.61066 0,-1.47037 0,-2.58064 0,-1.14027 0,-1.14027 0,0 0,0 0,0 0,0 0,-0.18006 0.03001,-0.21007 0.03001,-0.0299 0.210053,-0.0299 0.330083,0 0.630158,0 0.330082,0 0.630156,0 0.330083,0 0.660166,0 0.180045,0 0.210051,0.0299 0.03001,0.0301 0.03001,0.21007 0,0 0,0 0,0 0,0 0,0 0,1.14027 0,1.11027 0,2.58064 0,1.47037 0,2.61066 0,1.11027 0,1.11027 0,0 0,0 0,0 0,0 0,0 0,0 0,0 0,0 0,0 0,0 0,0 0,0 0,0 0,0 0,0.18005 -0.03001,0.21006 -0.03001,0.03 -0.210051,0.03 -0.48012,0 -0.96024,0 -0.450112,0 -0.96024,0 -0.180045,0 -0.210053,-0.03 -0.03001,-0.0302 -0.03001,-0.21006 z"
       id="text1"
       aria-label="j24" />
  </g>
</svg>
