<?xml version="1.0" encoding="UTF-8" standalone="no"?>
<!-- Created with Inkscape (http://www.inkscape.org/) -->

<svg
   width="196.03735mm"
   height="35.051929mm"
   viewBox="0 0 196.03735 35.051929"
   version="1.1"
   id="svg1"
   inkscape:version="1.4.3 (0d15f75, 2025-12-25)"
   sodipodi:docname="logo_rect.svg"
   xmlns:inkscape="http://www.inkscape.org/namespaces/inkscape"
   xmlns:sodipodi="http://sodipodi.sourceforge.net/DTD/sodipodi-0.dtd"
   xmlns="http://www.w3.org/2000/svg"
   xmlns:svg="http://www.w3.org/2000/svg">
  <sodipodi:namedview
     id="namedview1"
     pagecolor="#ffffff"
     bordercolor="#000000"
     borderopacity="0.25"
     inkscape:showpageshadow="2"
     inkscape:pageopacity="0.0"
     inkscape:pagecheckerboard="0"
     inkscape:deskcolor="#d1d1d1"
     inkscape:document-units="mm"
     inkscape:zoom="0.84380947"
     inkscape:cx="342.49438"
     inkscape:cy="168.87699"
     inkscape:window-width="1512"
     inkscape:window-height="846"
     inkscape:window-x="0"
     inkscape:window-y="34"
     inkscape:window-maximized="0"
     inkscape:current-layer="layer1" />
  <defs
     id="defs1" />
  <g
     inkscape:label="Layer 1"
     inkscape:groupmode="layer"
     id="layer1"
     transform="translate(-7.5239744,-64.882093)">
    <path
       style="font-size:50.8px;font-family:Honk;-inkscape-font-specification:'Honk, Normal';stroke-width:0.264583"
       d="m 7.5239008,76.464418 h 2.032 q 0,1.397 0,2.2352 0,0.8382 0,1.6256 0,0.762 0,1.9812 0,0 0,0 0,0 0,0 0,0 0,0 0,0 0,0 0,1.27 0,1.9304 0,0.6604 0,1.1176 0,0.4318 0,1.0414 0,0.5842 0,1.7526 h -2.032 z m 15.7988002,0 v 11.684 h -2.032 q 0,-1.1684 0,-1.7526 0,-0.6096 0,-1.0414 0,-0.4572 0,-1.1176 0,-0.6604 0,-1.9304 0,0 0,0 0,0 0,0 0,0 0,0 0,0 0,0 0,-1.2192 0,-1.9812 0,-0.7874 0,-1.6256 0,-0.8382 0,-2.2352 z m 0,2.5908 h -2.032 q 0,-0.762 0,-1.5494 0,-0.8128 0,-1.4986 0,-0.6858 0,-1.0922 0,-0.4318 0,-0.4318 0,0 0,0 0,0 0,0 0,0 0,-0.0762 0,-0.0762 0,-0.3048 0,-0.254 0,-0.762 0,-0.5334 0,-1.397 0,0 0,0 0,0 0,0 0,0 -0.889,0 -0.8636,0 -2.032,0 -1.1684,0 -2.0574,0 -0.8636,0 -0.8636,0 0,0 0,-0.2794 0,-0.3048 0,-0.6858 0,-0.381 0,-0.6604 0,-0.3048 0,-0.3048 0.3556,0 0.7874,0 0.4318,0 1.0668,0 0.6604,0 1.5748,0 0.9144,0 2.2098,0 0.1778,0 0.5334,0 0.3556,0 0.6858,0 0.3302,0 0.4572,0 0.1016,0 0.1778,0 0.1016,0 0.1778,0 0.1016,0 0.2032,0 0,0.7874 0,2.0066 0,1.2192 0,2.5654 0,1.3462 0,2.54 0,1.1938 0,1.9304 z m -15.7988002,0 q 0,-0.7366 0,-1.9304 0,-1.1938 0,-2.54 0,-1.3462 0,-2.5654 0,-1.2192 0,-2.0066 0.1016,0 0.2032,0 0.0762,0 0.1778,0 0.0762,0 0.1778,0 0.127,0 0.4572,0 0.3302,0 0.6858,0 0.3556,0 0.5334,0 0.8636002,0 1.5494002,0 0.7112,0 1.2446,0 0.5588,0 0.9906,0 0.4572,0 0.7874,0 0.3556,0 0.6096,0 0.2794,0 0.508,0 0,0 0,0.3048 0,0.2794 0,0.6604 0,0.381 0,0.6858 0,0.2794 0,0.2794 0,0 -0.6096,0 -0.5842,0 -1.4732,0 -0.8636,0 -1.7526,0 -0.8636,0 -1.4732,0 -0.5842002,0 -0.5842002,0 0,0 0,0 0,0 0,0 0,0.8636 0,1.397 0,0.508 0,0.762 0,0.2286 0,0.3048 0,0.0762 0,0.0762 0,0 0,0 0,0 0,0 0,0 0,0.4318 0,0.4064 0,1.0922 0,0.6858 0,1.4986 0,0.7874 0,1.5494 z m 15.7988002,-1.524 h -2.032 q 0,0 0,-1.0668 0,-1.0668 0,-2.6416 0,-1.6002 0,-3.175 0,-1.6002 0,-2.667 0,-1.0668 0,-1.0668 0,0 0,0 0,0 0,0 0,0 0,0 0,0 0,0 0,0 0,0 0,0 0,0 0,0 0,0 0,0 0,0 -0.8636,0 -1.7018,0 -0.8382,0 -1.6002,0 -0.7366,0 -1.397,0 -0.6604,0 -1.1938,0 -0.1778,-0.381 -0.1778,-1.016 0,-0.635 0.1778,-1.016 0,0 0,0 0,0 0,0 0,0 0,0 0,0 0,0 0,0 0.7874,0 0.8128,0 1.9812,0 1.1938,0 2.3622,0 1.1938,0 1.9812,0 0.8128,0 0.8128,0 0,1.1684 0,2.4638 0,1.2954 0,2.667 0,1.3462 0,2.6924 0,1.3208 0,2.5654 0,1.2192 0,2.2606 z m -15.7988002,0 q 0,-1.0414 0,-2.2606 0,-1.2446 0,-2.5654 0,-1.3462 0,-2.6924 0,-1.3716 0,-2.667 0,-1.2954 0,-2.4638 0,0 0.8128,0 0.7874,0 1.9558002,0 1.1938,0 2.3622,0 1.1938,0 1.9812,0 0.8128,0 0.8128,0 0,0 0,0 0,0 0,0 0,0 0,0 0,0 0,0 0.2032,0.381 0.2032,1.016 0,0.635 -0.2032,1.016 -0.5334,0 -1.1938,0 -0.6604,0 -1.4224,0 -0.7366,0 -1.5748,0 -0.8128,0 -1.7018002,0 0,0 0,0 0,0 0,0 0,0 0,0 0,0 0,0 0,0 0,0 0,0 0,0 0,0 0,0 0,0 0,0 0,0 0,1.0668 0,1.0668 0,2.667 0,1.5748 0,3.175 0,1.5748 0,2.6416 0,1.0668 0,1.0668 z m 15.7988002,10.16 v 5.9944 q 0,0 0,0.635 0,0.6096 0,1.524 0,0.9144 0,1.8288 0,0.9144 0,1.524 0,0.635 0,0.635 0,0 -0.7874,0 -0.762,0 -1.9304,0 -1.143,0 -2.3114,0 -1.1684,0 -2.0066,0 -0.8128,0 -0.889,0 0,0 0,0 0,0 0,0 0,0 0,0 0,0 0,0 0,0 0,0 0,0 0,0 0,0 0,0 0,0 0,0 0,0 0,0 0,0 0,0 0,0 0,0 -0.0762,0 -0.889,0 -0.8128,0 -1.9812,0 -1.1684,0 -2.3114,0 -1.1430002,0 -1.9050002,0 -0.7874,0 -0.7874,0 v -12.1412 h 2.032 v 10.1092 q 0,0 0,0 0,0 0,0 0,0 0,0 0,0 0.7620002,0 0.7874,0 1.905,0 1.143,0 2.2606,0 1.143,0 1.905,0 0.7874,0 0.7874,0 0.0762,0 0.508,-0.381 0.4318,-0.381 1.0414,-0.9652 0.6096,-0.5842 1.1938,-1.1938 0.5842,-0.5842 0.9652,-1.016 0.4064,-0.4318 0.4064,-0.508 v -6.0452 z m -2.032005,-7.2136 h 2.032 v 8.0772 q 0,0.0762 0.381,0.508 0.4064,0.4318 0.9906,1.0414 0.5842,0.5842 1.1938,1.1684 0.6096,0.5842 1.0414,0.9652 0.4318,0.381 0.508,0.381 0,0 0,0 0,0 0,0 0,0 0,0 0,0 0,0 0.3048,0 1.1176,0 0.8382,0 1.8796,0 1.0668,0 2.0828,0 1.0414,0 1.7526,0 0.7112,0 0.8382,0 0,0.4826 0,1.016 0,0.508 0,1.016 0,0 0,0 0,0 0,0 0,0 0,0 0,0 0,0 0,0 0,0 0,0 -1.016,0 -0.9906,0 -2.5654,0 -1.5494,0 -3.3274,0 -1.778,0 -3.3528,0 -1.5494,0 -2.54,0 -1.016,0 -1.016,0 0,0 0,0 0,0 0,0 0,0 0,0 0,0 0,0 0,0 0,-0.7112 0,-0.7112 0,-1.9304 0,-1.2192 0,-2.7178 0,-1.4986 0,-3.0734 0,-1.6002 0,-3.0988 0,-1.4986 0,-2.6416 z m 0,2.2352 q 0,0 0,-0.9144 0,-0.9144 0,-2.3368 0,-1.4478 0,-3.0734 0,-1.6256 0,-3.048 0,-1.4478 0,-2.3622 0,-0.9144 0,-0.9144 0,0 0,0 0,0 0,0 0,0 0,0 0,0 0,0 0,0 1.016,0 0.9906,0 2.54,0 1.5748,0 3.3528,0 1.778,0 3.3274,0 1.5748,0 2.5654,0 1.016,0 1.016,0 0,0 0,0 0,0 0,0 0,0 0,0 0,0 0,0 0,0 0,0 0,0.4826 0,1.016 0,0.508 0,1.016 0,0 -1.1938,0 -1.1938,0 -2.9464,0 -1.7526,0 -3.5052,0 -1.7526,0 -2.9464,0 -1.1938,0 -1.1938,0 0,0 0,0 0,0 0,0 0,0 0,0 0,0 0,0 0,0 0,0 0,0 0,0 0,0 0,0 0,0 0,0 0,0 0,0 0,0 0,0 0,0 0,0 0,0 0,1.0668 0,1.0668 0,2.667 0,1.5748 0,3.175 0,1.5748 0,2.6416 0,1.0668 0,1.0668 z m 27.0256,1.524 h -2.032 v -8.0772 q 0,-0.0762 -0.4064,-0.508 -0.381,-0.4318 -0.9652,-1.016 -0.5842,-0.6096 -1.1938,-1.1938 -0.6096,-0.5842 -1.0414,-0.9652 -0.4318,-0.381 -0.508,-0.381 0,0 0,0 0,0 0,0 0,0 0,0 0,0 0,0 -0.3048,0 -1.143,0 -0.8128,0 -1.8796,0 -1.0414,0 -2.0828,0 -1.016,0 -1.7272,0 -0.7112,0 -0.8382,0 0,-0.508 0,-1.016 0,-0.5334 0,-1.016 0,0 0,0 0,0 0,0 0,0 0,0 0,0 0,0 0,0 0,0 0,0 0.9906,0 1.016,0 2.5654,0 1.5748,0 3.3528,0 1.778,0 3.3274,0 1.5748,0 2.5654,0 1.016,0 1.016,0 0,0 0,0 0,0 0,0 0,0 0,0 0,0 0,0 0,0 0,0.7112 0,0.7112 0,1.9304 0,1.2192 0,2.7178 0,1.4986 0,3.0988 0,1.6002 0,3.0734 0,1.4732 0,2.6416 z m 0,-2.2352 q 0,0 0,0.9144 0,0.9144 0,2.3622 0,1.4224 0,3.048 0,1.6256 0,3.0734 0,1.4224 0,2.3368 0,0.9144 0,0.9144 0,0 0,0 0,0 0,0 0,0 0,0 0,0 0,0 0,0 -1.016,0 -0.9906,0 -2.5654,0 -1.5494,0 -3.3274,0 -1.778,0 -3.3528,0 -1.5494,0 -2.5654,0 -0.9906,0 -0.9906,0 0,0 0,0 0,0 0,0 0,0 0,0 0,0 0,0 0,0 0,0 0,-0.508 0,-1.016 0,-0.5334 0,-1.016 0,0 1.1938,0 1.1938,0 2.9464,0 1.7526,0 3.5052,0 1.7526,0 2.9464,0 1.1938,0 1.1938,0 0,0 0,0 0,0 0,0 0,0 0,0 0,0 0,0 0,0 0,0 0,0 0,0 0,0 0,0 0,0 0,0 0,0 0,0 0,0 0,0 0,0 0,0 0,0 0,-1.0668 0,-1.0668 0,-2.6416 0,-1.6002 0,-3.175 0,-1.6002 0,-2.667 0,-1.0668 0,-1.0668 z m 0,6.1468 h -2.032 q 0,-1.397 0,-2.2352 0,-0.8382 0,-1.6002 0,-0.7874 0,-2.0066 0,0 0,0 0,0 0,0 0,0 0,0 0,0 0,0 0,-1.27 0,-1.9304 0,-0.6604 0,-1.0922 0,-0.4572 0,-1.0414 0,-0.6096 0,-1.778 h 2.032 z m -16.6116,-1.4732 q 0,0 0,0 0,0 0,0 0,0 0,0 0,0 0,0 0,0 0,0 0,0 0,0 0,0 0,0 -0.1524,0 -0.1778,-0.0254 -0.0254,-0.0254 -0.0254,-0.1778 0,-0.2794 0,-0.5334 0,-0.2794 0,-0.5334 0,-0.2794 0,-0.5588 0,-0.1524 0.0254,-0.1778 0.0254,-0.0254 0.1778,-0.0254 0,0 0,0 0,0 0,0 0,0 0,0 0,0 0,0 0,0 0,0 0,0 0,0 0,0 0,0 0,0 0.9398,0 0.9652,0 2.2098,0 1.2446,0 2.1844,0 0.9652,0 0.9652,0 0,0 0,0 0,0 0,0 0.1524,0 0.1778,0.0254 0.0254,0.0254 0.0254,0.1778 0,0.2794 0,0.5588 0,0.254 0,0.5334 0,0.254 0,0.5334 0,0.1524 -0.0254,0.1778 -0.0254,0.0254 -0.1778,0.0254 0,0 0,0 0,0 0,0 0,0 -0.9652,0 -0.9398,0 -2.1844,0 -1.2446,0 -2.2098,0 z m -9.3472,-7.9756 h 0.9652 q 0,0 0,0.1778 0,0.1778 0,0.3556 0,0.1778 0,0.1778 0,0 1.016,-0.1524 1.0414,-0.1524 2.54,-0.3556 1.524,-0.2286 3.0226,-0.4318 1.524,-0.2286 2.54,-0.381 1.0414,-0.1524 1.0414,-0.1524 0,0 0,0.1016 0.0254,0.1016 0.0508,0.3302 0.0508,0.2032 0.1016,0.5334 0.0508,0.3302 0.0762,0.5588 0.0508,0.2286 0.0508,0.3556 0.0254,0.1016 0.0254,0.1016 0,0 -1.0668,0.1524 -1.0414,0.1524 -2.6162,0.381 -1.5494,0.2286 -3.1242,0.4572 -1.5494,0.2286 -2.6162,0.381 -1.0414,0.1524 -1.0414,0.1524 0,0 0,0.254 0,0.2286 0,0.4826 0,0.2286 0,0.2286 h -0.9652 z m 23.92683,-2.2352 h 2.032 q 0,1.397 0,2.2352 0,0.8382 0,1.6256 0,0.762 0,1.9812 0,0 0,0 0,0 0,0 0,0 0,0 0,0 0,0 0,1.27 0,1.9304 0,0.6604 0,1.1176 0,0.4318 0,1.0414 0,0.5842 0,1.7526 h -2.032 z m 28.956,0 v 11.684 h -2.032 q 0,-1.1684 0,-1.7526 0,-0.6096 0,-1.0414 0,-0.4572 0,-1.1176 0,-0.6604 0,-1.9304 0,0 0,0 0,0 0,0 0,0 0,0 0,0 0,0 0,-1.2192 0,-1.9812 0,-0.7874 0,-1.6256 0,-0.8382 0,-2.2352 z m -28.956,4.0132 h 2.032 v 8.0772 q 0,0.0762 0.381,0.508 0.4064,0.4318 0.9906,1.0414 0.5842,0.5842 1.1938,1.1684 0.6096,0.5842 1.0414,0.9652 0.4318,0.381 0.508,0.381 0,0 0,0 0,0 0,0 0,0 0,0 0,0 0.8636,0 0.889,0 2.1844,0 1.2954,0 2.5908,0 1.2954,0 2.159,0 0.889,0 0.889,0 0,0.4826 0,1.016 0,0.508 0,1.016 0,0 0,0 0,0 0,0 0,0 0,0 0,0 0,0 0,0 0,0 -0.1778,0 -1.3208,0 -1.143,0 -2.8448,0 -1.6764,0 -3.5306,0 -1.8288,0 -3.4544,0 -1.6256,0 -2.667,0 -1.016,0 -1.016,0 0,0 0,0 0,0 0,0 0,0 0,0 0,0 0,0 0,0 0,-1.016 0,-1.0414 0,-2.6416 0,-1.6256 0,-3.429 0,-1.8034 0,-3.4036 0,-1.6256 0,-2.6416 z m 28.956,-0.8636 h -2.032 v -12.7 q 0,0 0,0 0,0 0,0 0,0 -0.9144,0 -0.9144,0 -2.1082,0 -1.1938,0 -2.1082,0 -0.9144,0 -0.9144,0 0,0 -0.8636,0 -0.8636,0 -1.9812,0 -1.1176,0 -1.9812,0 -0.8636,0 -0.8636,0 0,0 0,0 0,0 0,0 v 5.1816 q 0,0 0,0 0,0 0,0 0,0 0,0 0,0 0,0 0,0 -0.762,0 -0.762,0 -1.9304,0 -1.1684,0 -2.4638,0 -1.27,0 -2.3368,0 -1.0414,0 -1.5494,0 0,0 0,0 0,0 0,0 0,0 0,0 -0.1016,0 -0.5588,0.381 -0.4318,0.381 -1.0414,0.9652 -0.5842,0.5842 -1.1684,1.1938 -0.5842,0.5842 -0.9652,1.016 -0.381,0.4318 -0.381,0.508 0,0 0,0 0,0 0,0 v 3.9116 h -2.032 v -10.0076 0 q 1.9558,0 3.3528,0 1.4224,0 2.5146,0 1.1176,0 2.0574,0 0.9398,0 1.9304,0 0.7874,0 1.4732,0 0.7112,0 1.1938,0 0.4826,0 0.635,0 v -5.1816 q 0,0 0.762,0 0.762,0 1.8796,0 1.143,0 2.286,0 1.143,0 1.9304,0 0.8128,0 0.8636,0 0,0 0,0 0,0 0,0 0,0 0,0 0,0 0,0 0,0 0,0 0,0 0,0 0,0 0,0 0,0 0,0 0,0 0,0 0,0 0,0 0.0508,0 0.889,0 0.8382,0 2.032,0 1.1938,0 2.3622,0 1.1938,0 1.9812,0 0.8128,0 0.8128,0 z m 0,0.8636 q 0,0 0,1.0414 0,1.016 0,2.6416 0,1.6002 0,3.4036 0,1.8034 0,3.429 0,1.6002 0,2.6416 0,1.016 0,1.016 0,0 0,0 0,0 0,0 0,0 0,0 0,0 0,0 0,0 -1.0668,0 -1.0668,0 -2.7686,0 -1.6764,0 -3.5814,0 -1.905,0 -3.6068,0 -1.6764,0 -2.7432,0 -1.0668,0 -1.0668,0 0,0 0,0 0,0 0,0 0,0 0,0 0,0 0,0 0,0 0,0 0,-0.508 0,-1.016 0,-0.5334 0,-1.016 0,0 0.9144,0 0.9398,0 2.3876,0 1.4732,0 3.0988,0 1.6256,0 3.0734,0 1.4732,0 2.3876,0 0.9398,0 0.9398,0 0,0 0,0 0,0 0,0 0,0 0,0 0,0 0,0 0,0 0,0 0,0 0,0 0,0 0,0 0,0 0,0 0,0 0,0 0,0 0,0 0,0 0,0 0,0 0,0 0,0 0,0 0,0 0,-0.8636 0,-0.889 0,-2.2606 0,-1.397 0,-2.9464 0,-1.5494 0,-2.921 0,-1.397 0,-2.2606 0,-0.889 0,-0.889 z m -15.494,4.9784 q 0,0 0,-0.9398 0,-0.9652 0,-2.2098 0,-1.2446 0,-2.1844 0,-0.9652 0,-0.9652 0,0 0,0 0,0 0,0 0,-0.1524 0.0254,-0.1778 0.0254,-0.0254 0.1778,-0.0254 0.2794,0 0.5334,0 0.2794,0 0.5334,0 0.2794,0 0.5588,0 0.1524,0 0.1778,0.0254 0.0254,0.0254 0.0254,0.1778 0,0 0,0 0,0 0,0 0,0 0,0.9652 0,0.9398 0,2.1844 0,1.2446 0,2.2098 0,0.9398 0,0.9398 0,0 0,0 0,0 0,0 0,0 0,0 0,0 0,0 0,0 0,0 0,0 0,0 0,0 0,0 0,0.1524 -0.0254,0.1778 -0.0254,0.0254 -0.1778,0.0254 -0.4064,0 -0.8128,0 -0.381,0 -0.8128,0 -0.1524,0 -0.1778,-0.0254 -0.0254,-0.0254 -0.0254,-0.1778 0,0 0,0 0,0 0,0 0,0 0,0 0,0 0,0 0,0 0,0 0,0 0,0 z m 13.462031,-1.2192 q 0,-1.1684 0,-2.6416 0,-1.4732 0,-3.0734 0,-1.6002 0,-3.0988 0,-1.4986 0,-2.7178 0,-1.2192 0,-1.9304 0,-0.7112 0,-0.7112 0,0 0,0 0,0 0,0 0,0 0,0 0,0 0,0 0,0 1.016,0 0.9906,0 2.54,0 1.5748,0 3.3528,0 1.778,0 3.3274,0 1.574799,0 2.565399,0 1.016,0 1.016,0 0,0 0,0 0,0 0,0 0,0 0,0 0,0 0,0 0,0 0,0 0,0.4826 0,1.016 0,0.508 0,1.016 -0.127,0 -0.8382,0 -0.7112,0 -1.7526,0 -1.015999,0 -2.082799,0 -1.0414,0 -1.8796,0 -0.8128,0 -1.1176,0 0,0 0,0 0,0 0,0 0,0 0,0 0,0 0,0 -0.0762,0 -0.508,0.381 -0.4318,0.381 -1.0414,0.9652 -0.6096,0.5842 -1.1938,1.1938 -0.5842,0.5842 -0.9906,1.016 -0.381,0.4318 -0.381,0.508 v 8.0772 z m 0,-7.7216 h 2.032 q 0,1.397 0,2.2352 0,0.8382 0,1.6256 0,0.762 0,1.9812 0,0 0,0 0,0 0,0 0,0 0,0 0,0 0,0 0,1.27 0,1.9304 0,0.6604 0,1.1176 0,0.4318 0,1.0414 0,0.5842 0,1.7526 h -2.032 z m 0,3.9624 h 2.032 v 8.0772 q 0,0.0762 0.381,0.508 0.4064,0.4318 0.9906,1.0414 0.5842,0.5842 1.1938,1.1684 0.6096,0.5842 1.0414,0.9652 0.4318,0.381 0.508,0.381 0,0 0,0 0,0 0,0 0,0 0,0 0,0 0,0 0.3048,0 1.1176,0 0.8382,0 1.8796,0 1.0668,0 2.082799,0 1.0414,0 1.7526,0 0.7112,0 0.8382,0 0,0.4826 0,1.016 0,0.508 0,1.016 0,0 0,0 0,0 0,0 0,0 0,0 0,0 0,0 0,0 0,0 0,0 -1.016,0 -0.9906,0 -2.565399,0 -1.5494,0 -3.3274,0 -1.778,0 -3.3528,0 -1.5494,0 -2.54,0 -1.016,0 -1.016,0 0,0 0,0 0,0 0,0 0,0 0,0 0,0 0,0 0,0 0,-0.7112 0,-0.7112 0,-1.9304 0,-1.2192 0,-2.7178 0,-1.4986 0,-3.0734 0,-1.6002 0,-3.0988 0,-1.4986 0,-2.6416 z m 27.025603,3.7592 h -2.032004 v -8.0772 q 0,-0.0762 -0.4064,-0.508 -0.381,-0.4318 -0.9652,-1.016 -0.5842,-0.6096 -1.1938,-1.1938 -0.6096,-0.5842 -1.0414,-0.9652 -0.4318,-0.381 -0.508,-0.381 0,0 0,0 0,0 0,0 0,0 0,0 0,0 0,0 -0.3048,0 -1.143,0 -0.8128,0 -1.8796,0 -1.0414,0 -2.0828,0 -1.016,0 -1.7272,0 -0.7112,0 -0.8382,0 0,-0.508 0,-1.016 0,-0.5334 0,-1.016 0,0 0,0 0,0 0,0 0,0 0,0 0,0 0,0 0,0 0,0 0,0 0.9906,0 1.016,0 2.5654,0 1.5748,0 3.3528,0 1.778,0 3.3274,0 1.5748,0 2.5654,0 1.016004,0 1.016004,0 0,0 0,0 0,0 0,0 0,0 0,0 0,0 0,0 0,0 0,0.7112 0,0.7112 0,1.9304 0,1.2192 0,2.7178 0,1.4986 0,3.0988 0,1.6002 0,3.0734 0,1.4732 0,2.6416 z m 0,-2.2352 q 0,0 0,0.9144 0,0.9144 0,2.3622 0,1.4224 0,3.048 0,1.6256 0,3.0734 0,1.4224 0,2.3368 0,0.9144 0,0.9144 0,0 0,0 0,0 0,0 0,0 0,0 0,0 0,0 0,0 -1.016004,0 -0.9906,0 -2.5654,0 -1.5494,0 -3.3274,0 -1.778,0 -3.3528,0 -1.5494,0 -2.5654,0 -0.9906,0 -0.9906,0 0,0 0,0 0,0 0,0 0,0 0,0 0,0 0,0 0,0 0,0 0,-0.508 0,-1.016 0,-0.5334 0,-1.016 0,0 1.1938,0 1.1938,0 2.9464,0 1.7526,0 3.5052,0 1.7526,0 2.9464,0 1.1938,0 1.1938,0 0,0 0,0 0,0 0,0 0,0 0,0 0,0 0,0 0,0 0,0 0,0 0,0 0,0 0,0 0,0 0,0 0,0 0,0 0,0 0,0 0,0 0,0 0,0 0,-1.0668 0,-1.0668 0,-2.6416 0,-1.6002 0,-3.175 0,-1.6002 0,-2.667 0,-1.0668 0,-1.0668 z m -10.261604,-3.6576 q 0,0 0,0 0,0 0,0 0,0 0,0 0,0 0,0 0,0 0,0 0,0 0,0 0,0 0,0 0.1524,0 0.1778,0.0254 0.0254,0.0254 0.0254,0.1778 0,0.2794 0,0.5588 0,0.254 0,0.5334 0,0.254 0,0.5334 0,0.1524 -0.0254,0.1778 -0.0254,0.0254 -0.1778,0.0254 0,0 0,0 0,0 0,0 0,0 0,0 0,0 0,0 0,0 0,0 0,0 0,0 0,0 0,0 0,0 -0.9652,0 -0.9398,0 -2.1844,0 -1.2446,0 -2.2098,0 -0.939799,0 -0.939799,0 0,0 0,0 0,0 0,0 -0.1524,0 -0.1778,-0.0254 -0.0254,-0.0254 -0.0254,-0.1778 0,-0.2794 0,-0.5334 0,-0.2794 0,-0.5334 0,-0.2794 0,-0.5588 0,-0.1524 0.0254,-0.1778 0.0254,-0.0254 0.1778,-0.0254 0,0 0,0 0,0 0,0 0,0 0.939799,0 0.9652,0 2.2098,0 1.2446,0 2.1844,0 z m 9.1948,8.0264 h -0.9652 q 0,0 0,-0.1778 0,-0.1778 0,-0.3556 0,-0.1778 0,-0.1778 0,0 -1.0414,0.1524 -1.016,0.1524 -2.54,0.381 -1.4986,0.2032 -3.0226,0.4318 -1.4986,0.2032 -2.54,0.3556 -1.016,0.1524 -1.016,0.1524 0,0 -0.0254,-0.1016 0,-0.1016 -0.0508,-0.3048 -0.0254,-0.2286 -0.0762,-0.5588 -0.0508,-0.3302 -0.1016,-0.5588 -0.0254,-0.2286 -0.0508,-0.3302 0,-0.127 0,-0.127 0,0 1.0414,-0.1524 1.0668,-0.1524 2.6162,-0.381 1.5748,-0.2286 3.1242,-0.4572 1.5748,-0.2286 2.6162,-0.381 1.0668,-0.1524 1.0668,-0.1524 0,0 0,-0.2286 0,-0.254 0,-0.4826 0,-0.254 0,-0.254 h 0.9652 z m -0.96517,-4.3688 h 2.032004 q 0,0 0,1.0668 0,1.0668 0,2.667 0,1.5748 0,3.175 0,1.5748 0,2.6416 0,1.0668 0,1.0668 0,0 0,0 0,0 0,0 0,0 0,0 0,0 0,0 0,0 0,0 0,0 0,0 0,0 0,0 0,0 0,0 0,0 0,0 0,0 0,0 0,0 0,0 0,0 1.1938,0 1.1938,0 2.9464,0 1.7526,0 3.5052,0 1.7526,0 2.9464,0 1.1938,0 1.1938,0 0,0.4826 0,1.016 0,0.508 0,1.016 0,0 0,0 0,0 0,0 0,0 0,0 0,0 0,0 0,0 0,0 0,0 -1.016,0 -0.9906,0 -2.5654,0 -1.5494,0 -3.3274,0 -1.778,0 -3.3528,0 -1.5494,0 -2.540004,0 -1.016,0 -1.016,0 0,0 0,0 0,0 0,0 0,0 0,0 0,0 0,0 0,0 0,-0.9144 0,-0.9144 0,-2.3368 0,-1.4478 0,-3.0734 0,-1.6256 0,-3.048 0,-1.4478 0,-2.3622 z m 27.025604,-2.9464 h -2.032 v -8.0772 q 0,-0.0762 -0.4064,-0.508 -0.381,-0.4318 -0.9652,-1.016 -0.5842,-0.6096 -1.1938,-1.1938 -0.6096,-0.5842 -1.0414,-0.9652 -0.4318,-0.381 -0.508,-0.381 0,0 0,0 0,0 0,0 0,0 0,0 0,0 0,0 -0.3048,0 -1.143,0 -0.8128,0 -1.8796,0 -1.0414,0 -2.0828,0 -1.016,0 -1.7272,0 -0.7112,0 -0.8382,0 0,-0.508 0,-1.016 0,-0.5334 0,-1.016 0,0 0,0 0,0 0,0 0,0 0,0 0,0 0,0 0,0 0,0 0,0 0.9906,0 1.016,0 2.5654,0 1.5748,0 3.3528,0 1.778,0 3.3274,0 1.5748,0 2.5654,0 1.016,0 1.016,0 0,0 0,0 0,0 0,0 0,0 0,0 0,0 0,0 0,0 0,0.7112 0,0.7112 0,1.9304 0,1.2192 0,2.7178 0,1.4986 0,3.0988 0,1.6002 0,3.0734 0,1.4732 0,2.6416 z m 0,2.9464 q 0,0 0,0.9144 0,0.9144 0,2.3622 0,1.4224 0,3.048 0,1.6256 0,3.0734 0,1.4224 0,2.3368 0,0.9144 0,0.9144 0,0 0,0 0,0 0,0 0,0 0,0 0,0 0,0 0,0 -1.016,0 -0.9906,0 -2.5654,0 -1.5494,0 -3.3274,0 -1.778,0 -3.3528,0 -1.5494,0 -2.5654,0 -0.9906,0 -0.9906,0 0,0 0,0 0,0 0,0 0,0 0,0 0,0 0,0 0,0 0,0 0,-0.508 0,-1.016 0,-0.5334 0,-1.016 0,0 1.1938,0 1.1938,0 2.9464,0 1.7526,0 3.5052,0 1.7526,0 2.9464,0 1.1938,0 1.1938,0 0,0 0,0 0,0 0,0 0,0 0,0 0,0 0,0 0,0 0,0 0,0 0,0 0,0 0,0 0,0 0,0 0,0 0,0 0,0 0,0 0,0 0,0 0,0 0,-1.0668 0,-1.0668 0,-2.6416 0,-1.6002 0,-3.175 0,-1.6002 0,-2.667 0,-1.0668 0,-1.0668 z m -27.025604,-4.4704 q 0,0 0,-0.9144 0,-0.9144 0,-2.3368 0,-1.4478 0,-3.0734 0,-1.6256 0,-3.048 0,-1.4478 0,-2.3622 0,-0.9144 0,-0.9144 0,0 0,0 0,0 0,0 0,0 0,0 0,0 0,0 0,0 1.016,0 0.990604,0 2.540004,0 1.5748,0 3.3528,0 1.778,0 3.3274,0 1.5748,0 2.5654,0 1.016,0 1.016,0 0,0 0,0 0,0 0,0 0,0 0,0 0,0 0,0 0,0 0,0 0,0.4826 0,1.016 0,0.508 0,1.016 0,0 -1.1938,0 -1.1938,0 -2.9464,0 -1.7526,0 -3.5052,0 -1.7526,0 -2.9464,0 -1.1938,0 -1.1938,0 0,0 0,0 0,0 0,0 0,0 0,0 0,0 0,0 0,0 0,0 0,0 0,0 0,0 0,0 0,0 0,0 0,0 0,0 0,0 0,0 0,0 0,0 0,0 0,1.0668 0,1.0668 0,2.667 0,1.5748 0,3.175 0,1.5748 0,2.6416 0,1.0668 0,1.0668 z m 27.025604,12.1412 h -2.032 q 0,0 0,-2.0066 0,-2.032 0,-6.6294 0,0 0,-0.127 0,-0.127 0,-0.127 0,0 0,-0.127 0,-0.127 0,-0.127 0,-5.0038 0,-7.3152 0,-2.3368 0,-2.3368 h 2.032 z m -27.025604,0 v -18.796 h 2.032004 q 0,0 0,2.3368 0,2.3114 0,7.3152 0,0 0,0.127 0,0.127 0,0.127 0,0 0,0.127 0,0.127 0,0.127 0,4.5974 0,6.6294 0,2.0066 0,2.0066 z m 1.016,-13.8684 h 0.965204 q 0,0 0,0.1778 0,0.1778 0,0.3556 0,0.1778 0,0.1778 0,0 1.016,-0.1524 1.0414,-0.1524 2.54,-0.3556 1.524,-0.2286 3.0226,-0.4318 1.524,-0.2286 2.54,-0.381 1.0414,-0.1524 1.0414,-0.1524 0,0 0,0.1016 0.0254,0.1016 0.0508,0.3302 0.0508,0.2032 0.1016,0.5334 0.0508,0.3302 0.0762,0.5588 0.0508,0.2286 0.0508,0.3556 0.0254,0.1016 0.0254,0.1016 0,0 -1.0668,0.1524 -1.0414,0.1524 -2.6162,0.381 -1.5494,0.2286 -3.1242,0.4572 -1.5494,0.2286 -2.6162,0.381 -1.0414,0.1524 -1.0414,0.1524 0,0 0,0.254 0,0.2286 0,0.4826 0,0.2286 0,0.2286 h -0.965204 z m 24.942804,8.2296 h -0.9652 q 0,0 0,-0.1778 0,-0.1778 0,-0.3556 0,-0.1778 0,-0.1778 0,0 -1.0414,0.1524 -1.016,0.1524 -2.54,0.381 -1.4986,0.2032 -3.0226,0.4318 -1.4986,0.2032 -2.54,0.3556 -1.016,0.1524 -1.016,0.1524 0,0 -0.0254,-0.1016 0,-0.1016 -0.0508,-0.3048 -0.0254,-0.2286 -0.0762,-0.5588 -0.0508,-0.3302 -0.1016,-0.5588 -0.0254,-0.2286 -0.0508,-0.3302 0,-0.127 0,-0.127 0,0 1.0414,-0.1524 1.0668,-0.1524 2.6162,-0.381 1.5748,-0.2286 3.1242,-0.4572 1.5748,-0.2286 2.6162,-0.381 1.0668,-0.1524 1.0668,-0.1524 0,0 0,-0.2286 0,-0.254 0,-0.4826 0,-0.254 0,-0.254 h 0.9652 z m 27.99083,-4.1148 v 14.732 q 0,0 -1.0922,0 -1.0668,0 -2.794,0 -1.7018,0 -3.6068,0 -1.905,0 -3.6322,0 -1.7018,0 -2.794,0 -1.0668,0 -1.0668,0 0,0 0,0 0,0 0,0 0,0 0,0 0,0 0,0 0,0 0,0 0,0 0,0 0,0 0,0 0,0 0,0 0,0 0,0 0,0 0,0 0,0 0,0 0,0 0,0 0,0 0,0 0,0 0,0 0,0 0,0 0,0 0,0 0,0 0,0 0,0 0,0 0,0 0,0 0,0 0,0 0,0 0,0 0,0 0,0 0,0 0,0 0,0 0,0 0,0 0,0 0,0 0,0 0,0 0,0 0,0 0,0 0,0 0,0 0,0 -0.127,0 -0.127,0 -0.762,0 -0.635,0 -2.1336,0 -1.4732,0 -4.1148,0 -2.6416,0 -6.8326,0 v -15.1892 h 2.032 q 0,0 0,0 0,0 0,0 0,0 0,0.9144 0,0.9144 0,2.2606 0,1.3462 0,2.6924 0,1.3462 0,2.2606 0,0.9144 0,0.9144 0,0 0,0 0,0 0,0 0,0 0,0 0,0 0,0 0,0 0,0 0,0 0,0 0,0 0,0 0,0 0,0 0,0 0,0 0,0 0.9652,0 0.9906,0 2.5146,0 1.524,0 3.2512,0 1.7272,0 3.2512,0 1.524,0 2.4892,0 0.9906,0 0.9906,0 0,0 0,0 0,0 0,0 0,0 0,0 0,0 0,0 v 4.1148 q 0,0 0,0 0,0 0,0 0,0 0.8128,0 0.8382,0 1.9304,0 1.0922,0 1.905,0 0.8382,0 0.8382,0 0,0 0.889,0 0.9144,0 2.0828,0 1.1684,0 2.0574,0 0.9144,0 0.9144,0 0,0 0,0 0,0 0,0 v -12.7 z m -28.956,0.127 0.0508,-15.1638 q 0,0 0,0 0,0 0,0 0,0 0,0 0,0 0,0 0.762,0 1.4986,0 0.762,0 1.4732,0 0.7366,0 1.397,0 0.6604,0 1.1938,0 0.5334,0 0.9144,0 0.4064,0 0.5842,0 0.0508,0 0.3302,0 0.3048,0 0.8382,0 0.5588,0 1.2954,0 0.762,0 1.6764,0 0.9398,0 2.032,0 1.0922,0 2.3114,0 0,0 0,0 0,0 0,0 0,0 0,0 0,0.4826 0,1.016 0,0.508 0,1.016 0,0 -0.5334,0 -0.5334,0 -1.2446,0 -0.7112,0 -1.2446,0 -0.5334,0 -0.5334,0 0,0 0,0 0,0 0,0 0,0 0,0 0,0 0,0 -0.0254,0 -0.7874,0.7366 -0.7366,0.7112 -1.8796,1.8796 -1.1176,1.143 -2.3876,2.4384 -1.27,1.2954 -2.413,2.4638 -1.1176,1.1684 -1.8288,1.9304 -0.7112,0.7366 -0.7112,0.762 0,0 0,0 0,0 0,0 0,0 0,0 0,0 0,0 0,0.2286 0,0.635 0,0.381 0,0.8382 0,0.4572 0,0.8636 0,0.381 0,0.5842 z m 28.956,-2.5146 h -2.032 q 0,0 0,-1.0668 0,-1.0668 0,-2.6416 0,-1.6002 0,-3.175 0,-1.6002 0,-2.667 0,-1.0668 0,-1.0668 0,0 0,0 0,0 0,0 0,0 0,0 0,0 0,0 0,0 0,0 0,0 0,0 0,0 0,0 0,0 0,0 0,0 0,0 0,0 0,0 0,0 0,0 0,0 -1.1938,0 -1.1938,0 -2.9464,0 -1.7526,0 -3.5052,0 -1.7526,0 -2.9464,0 -1.1938,0 -1.1938,0 0,-0.508 0,-1.016 0,-0.5334 0,-1.016 0,0 0,0 0,0 0,0 0,0 0,0 0,0 0,0 0,0 0,0 0,0 0.9906,0 1.016,0 2.5654,0 1.5748,0 3.3528,0 1.778,0 3.3274,0 1.5748,0 2.5654,0 1.016,0 1.016,0 0,0 0,0 0,0 0,0 0,0 0,0 0,0 0,0 0,0 0,0.9144 0,0.9144 0,2.3622 0,1.4224 0,3.048 0,1.6256 0,3.0734 0,1.4224 0,2.3368 z m 0,7.5692 h -2.032 q 0,0 0,-0.7874 0,-0.8128 0,-1.8796 0,-1.0668 0,-1.8542 0,-0.8128 0,-0.8128 0,0 0,0 0,0 0,0 0,0 0,0 0,0 0,0 0,0 0,-0.7874 0,-0.8128 0,-1.8796 0,-1.0668 0,-1.8542 0,-0.8128 0,-0.8128 h 2.032 z m -14.986,-3.7592 q 0,0 0,-0.9398 0,-0.9652 0,-2.2098 0,-1.2446 0,-2.1844 0,-0.9652 0,-0.9652 0,0 0,0 0,0 0,0 0,-0.1524 0.0254,-0.1778 0.0254,-0.0254 0.1778,-0.0254 0.2794,0 0.5334,0 0.2794,0 0.5334,0 0.2794,0 0.5588,0 0.1524,0 0.1778,0.0254 0.0254,0.0254 0.0254,0.1778 0,0 0,0 0,0 0,0 0,0 0,0.9652 0,0.9398 0,2.1844 0,1.2446 0,2.2098 0,0.9398 0,0.9398 0,0 0,0 0,0 0,0 0,0 0,0 0,0 0,0 0,0 0,0 0,0 0,0 0,0 0,0 0,0.1524 -0.0254,0.1778 -0.0254,0.0254 -0.1778,0.0254 -0.4064,0 -0.8128,0 -0.381,0 -0.8128,0 -0.1524,0 -0.1778,-0.0254 -0.0254,-0.0254 -0.0254,-0.1778 0,0 0,0 0,0 0,0 0,0 0,0 0,0 0,0 0,0 0,0 0,0 0,0 z m 25.70483,0.6604 q 0,1.0414 0,2.6162 0,1.5748 0,3.3274 0,1.7272 0,3.2512 0,1.524 0,2.4892 0,0.9652 0,0.9652 0,0 0,0 0,0 0,0 0,0 0,0 0,0 0,0 0,0 -0.635,0 -0.6096,0 -1.5494,0 -0.9398,0 -1.8796,0 -0.9398,0 -1.6256,0 -0.6604,0 -0.7112,0 0,0 0,0 0,0 0,0 0,0 0,0 -0.1016,-0.381 -0.1016,-1.016 0,-0.635 0.1016,-1.016 0,0 0.6604,0 0.6604,0 1.524,0 0.8636,0 1.524,0 0.6604,0 0.6604,0 0,0 0,0 0,0 0,0 v -10.6172 z m -12.7508,0 h 2.032 v 10.6172 q 0,0 0,0 0,0 0,0 0,0 0.6604,0 0.6604,0 1.524,0 0.8636,0 1.524,0 0.6604,0 0.6604,0 0.127,0.381 0.127,1.016 0,0.635 -0.127,1.016 0,0 0,0 0,0 0,0 0,0 0,0 -0.0508,0 -0.7366,0 -0.6604,0 -1.6002,0 -0.9398,0 -1.8796,0 -0.9398,0 -1.5494,0 -0.635,0 -0.635,0 0,0 0,0 0,0 0,0 0,0 0,0 0,0 0,0 0,0 0,-0.9652 0,-0.9652 0,-2.4892 0,-1.524 0,-3.2512 0,-1.7526 0,-3.3274 0,-1.5748 0,-2.6162 z m 12.7508,11.938 h -2.032 v -10.6172 q 0,0 0,0 0,0 0,0 0,0 -0.6604,0 -0.6604,0 -1.524,0 -0.8636,0 -1.524,0 -0.6604,0 -0.6604,0 -0.1016,-0.381 -0.1016,-1.016 0,-0.635 0.1016,-1.016 0,0 0,0 0,0 0,0 0,0 0,0 0.0508,0 0.7112,0 0.6858,0 1.6256,0 0.9398,0 1.8796,0 0.9398,0 1.5494,0 0.635,0 0.635,0 0,0 0,0 0,0 0,0 0,0 0,0 0,0 0,0 0,0 0,0.9652 0,0.9652 0,2.4892 0,1.524 0,3.2766 0,1.7272 0,3.302 0,1.5748 0,2.6162 z m -12.7508,0 q 0,-1.0414 0,-2.6162 0,-1.5748 0,-3.302 0,-1.7526 0,-3.2766 0,-1.524 0,-2.4892 0,-0.9652 0,-0.9652 0,0 0,0 0,0 0,0 0,0 0,0 0,0 0,0 0,0 0.635,0 0.6096,0 1.5494,0 0.9398,0 1.8796,0 0.9398,0 1.6002,0 0.6858,0 0.7366,0 0,0 0,0 0,0 0,0 0,0 0,0 0.127,0.381 0.127,1.016 0,0.635 -0.127,1.016 0,0 -0.6604,0 -0.6604,0 -1.524,0 -0.8636,0 -1.524,0 -0.6604,0 -0.6604,0 0,0 0,0 0,0 0,0 v 10.6172 z m 0,-9.6012 h 2.032 q 0,0 0,0.6096 0,0.6096 0,2.4384 0,0 0,0 0,0 0,0 0,0 0,0 0,0 0,0 0,1.7018 0,2.286 0,0.5588 0,0.6858 0,0.1016 0,0.4318 h -2.032 z m 12.7508,0 v 6.4516 h -2.032 q 0,-0.3302 0,-0.4318 0,-0.127 0,-0.6858 0,-0.5842 0,-2.286 0,0 0,0 0,0 0,0 0,0 0,0 0,0 0,0 0,-1.8288 0,-2.4384 0,-0.6096 0,-0.6096 z m 26.92403,3.8608 h -2.032 q 0,-1.397 0,-2.2352 0,-0.8382 0,-1.6002 0,-0.7874 0,-2.0066 0,0 0,0 0,0 0,0 0,0 0,0 0,0 0,0 0,-1.27 0,-1.9304 0,-0.6604 0,-1.0922 0,-0.4572 0,-1.0414 0,-0.6096 0,-1.778 h 2.032 z m 0,-3.9624 h -2.032 v -8.0772 q 0,-0.0762 -0.4064,-0.508 -0.381,-0.4318 -0.9652,-1.016 -0.5842,-0.6096 -1.1938,-1.1938 -0.6096,-0.5842 -1.0414,-0.9652 -0.4318,-0.381 -0.508,-0.381 0,0 0,0 0,0 0,0 0,0 0,0 0,0 -0.889,0 -0.8636,0 -2.159,0 -1.2954,0 -2.5908,0 -1.2954,0 -2.1844,0 -0.8636,0 -0.8636,0 0,-0.508 0,-1.016 0,-0.5334 0,-1.016 0,0 0,0 0,0 0,0 0,0 0,0 0,0 0,0 0,0 0,0 0.1778,0 1.3208,0 1.143,0 2.8194,0 1.7018,0 3.5306,0 1.8542,0 3.4798,0 1.6256,0 2.6416,0 1.0414,0 1.0414,0 0,0 0,0 0,0 0,0 0,0 0,0 0,0 0,0 0,0 0,1.0414 0,1.016 0,2.6416 0,1.6002 0,3.4036 0,1.8034 0,3.429 0,1.6002 0,2.6416 z m -28.956,0.8636 h 2.032 v 12.7 q 0,0 0,0 0,0 0,0 0,0 0.9144,0 0.9144,0 2.1082,0 1.1938,0 2.1082,0 0.9144,0 0.9144,0 0,0 0.8636,0 0.8636,0 1.9812,0 1.1176,0 1.9812,0 0.8636,0 0.8636,0 0,0 0,0 0,0 0,0 v -5.1816 q 0,0 0,0 0,0 0,0 0,0 0,0 0,0 0,0 0,0 0.762,0 0.762,0 1.9304,0 1.1684,0 2.4384,0 1.2954,0 2.3368,0 1.0668,0 1.5748,0 0,0 0,0 0,0 0,0 0,0 0,0 0.1016,0 0.5334,-0.381 0.4572,-0.381 1.0414,-0.9652 0.6096,-0.5842 1.1938,-1.1684 0.5842,-0.6096 0.9652,-1.0414 0.381,-0.4318 0.381,-0.508 0,0 0,0 0,0 0,0 v -3.9116 h 2.032 v 10.0076 0 q -1.9304,0 -3.3528,0 -1.4224,0 -2.54,0 -1.0922,0 -2.032,0 -0.9398,0 -1.9304,0 -0.7874,0 -1.4986,0 -0.6858,0 -1.1684,0 -0.4826,0 -0.635,0 v 5.1816 q 0,0 -0.762,0 -0.762,0 -1.905,0 -1.1176,0 -2.2606,0 -1.143,0 -1.9558,0 -0.7874,0 -0.8382,0 0,0 0,0 0,0 0,0 0,0 0,0 0,0 0,0 0,0 0,0 0,0 0,0 0,0 0,0 0,0 0,0 0,0 0,0 0,0 0,0 -0.0508,0 -0.889,0 -0.8382,0 -2.032,0 -1.1938,0 -2.3876,0 -1.1684,0 -1.9558,0 -0.8128,0 -0.8128,0 z m 0,-0.8636 q 0,0 0,-1.016 0,-1.0414 0,-2.6416 0,-1.6256 0,-3.429 0,-1.8034 0,-3.4036 0,-1.6256 0,-2.6416 0,-1.0414 0,-1.0414 0,0 0,0 0,0 0,0 0,0 0,0 0,0 0,0 0,0 1.0668,0 1.0668,0 2.7432,0 1.7018,0 3.6068,0 1.905,0 3.5814,0 1.7018,0 2.7686,0 1.0668,0 1.0668,0 0,0 0,0 0,0 0,0 0,0 0,0 0,0 0,0 0,0 0,0 0,0.4826 0,1.016 0,0.508 0,1.016 0,0 -0.9398,0 -0.9144,0 -2.3876,0 -1.4478,0 -3.0734,0 -1.6256,0 -3.0988,0 -1.4478,0 -2.3876,0 -0.9144,0 -0.9144,0 0,0 0,0 0,0 0,0 0,0 0,0 0,0 0,0 0,0 0,0 0,0 0,0 0,0 0,0 0,0 0,0 0,0 0,0 0,0 0,0 0,0 0,0 0,0 0,0 0,0 0,0 0,0 0,0.889 0,0.8636 0,2.2606 0,1.3716 0,2.921 0,1.5494 0,2.9464 0,1.3716 0,2.2606 0,0.8636 0,0.8636 z m 13.462,1.27 q 0,0 0,-0.9398 0,-0.9652 0,-2.2098 0,-1.2446 0,-2.1844 0,-0.9652 0,-0.9652 0,0 0,0 0,0 0,0 0,-0.1524 0.0254,-0.1778 0.0254,-0.0254 0.1778,-0.0254 0.2794,0 0.5334,0 0.2794,0 0.5334,0 0.2794,0 0.5588,0 0.1524,0 0.1778,0.0254 0.0254,0.0254 0.0254,0.1778 0,0 0,0 0,0 0,0 0,0 0,0.9652 0,0.9398 0,2.1844 0,1.2446 0,2.2098 0,0.9398 0,0.9398 0,0 0,0 0,0 0,0 0,0 0,0 0,0 0,0 0,0 0,0 0,0 0,0 0,0 0,0 0,0.1524 -0.0254,0.1778 -0.0254,0.0254 -0.1778,0.0254 -0.4064,0 -0.8128,0 -0.381,0 -0.8128,0 -0.1524,0 -0.1778,-0.0254 -0.0254,-0.0254 -0.0254,-0.1778 0,0 0,0 0,0 0,0 0,0 0,0 0,0 0,0 0,0 0,0 0,0 0,0 z m -13.462,-8.9916 h 2.032 q 0,1.397 0,2.2352 0,0.8382 0,1.6256 0,0.762 0,1.9812 0,0 0,0 0,0 0,0 0,0 0,0 0,0 0,0 0,1.27 0,1.9304 0,0.6604 0,1.1176 0,0.4318 0,1.0414 0,0.5842 0,1.7526 h -2.032 z m 42.72282,-0.1016 v 11.684 h -2.032 q 0,-1.1684 0,-1.7526 0,-0.6096 0,-1.0414 0,-0.4572 0,-1.1176 0,-0.6604 0,-1.9304 0,0 0,0 0,0 0,0 0,0 0,0 0,0 0,0 0,-1.2192 0,-1.9812 0,-0.7874 0,-1.6256 0,-0.8382 0,-2.2352 z m -15.7988,1.5748 v -13.1064 q 0,0 0.8128,0 0.7874,0 1.9812,0 1.1938,0 2.3876,0 1.2192,0 2.0574,0 0.8636,0 0.9398,0 0,0 0,0 0,0 0,0 0,0 0,0 0,0 0,0 0,0 0,0 0,0 0,0 0,0 0,0 0,0 0,0 0,0 0,0 0.0762,0 0.8636,0 0.8128,0 1.9304,0 1.1176,0 2.2098,0 1.1176,0 1.8542,0 0.762,0 0.762,0 v 13.1064 h -2.032 v -11.0744 q 0,0 0,0 0,0 0,0 -1.8288,0 -2.921,0 -1.0668,0 -1.6764,0 -0.5842,0 -0.9906,0 0,0 -0.9398,0 -0.9144,0 -2.1336,0 -1.2192,0 -2.159,0 -0.9144,0 -0.9144,0 0,0 0,0 0,0 0,0 v 11.0744 z m 0,-5.7912 h 2.032 q 0,0 0,2.0066 0,2.0066 0,6.6294 0,0 0,0.127 0,0.127 0,0.127 0,0 0,0.127 0,0.127 0,0.127 0,4.9784 0,7.3152 0,2.3368 0,2.3368 h -2.032 z m 0,8.7884 h 2.032 v 7.5692 q 0,0.0762 0.381,0.508 0.4064,0.4318 0.9906,1.0414 0.5842,0.5842 1.1938,1.1684 0.6096,0.5842 1.0414,0.9652 0.4318,0.381 0.508,0.381 0,0 0.762,0 0.7874,0 1.905,0 1.143,0 2.2606,0 1.143,0 1.905,0 0.7874,0 0.7874,0 0,0 0,0 0,0 0,0 0,0 0,0 0,-1.0668 0,-2.1336 0,-1.0922 0,-2.159 0,-1.0668 0,-2.1336 0,-1.0922 0,-2.159 v -3.048 h 2.032 v 13.6652 q 0,0 -0.7874,0 -0.7874,0 -1.9558,0 -1.143,0 -2.3368,0 -1.1684,0 -2.0066,0 -0.8128,0 -0.889,0 0,0 0,0 0,0 0,0 0,0 0,0 0,0 0,0 0,0 0,0 0,0 0,0 0,0 0,0 0,0 0,0 0,0 0,0 0,0 0,0 -0.0762,0 -0.889,0 -0.8128,0 -1.9812,0 -1.143,0 -2.286,0 -1.1176,0 -1.8796,0 -0.7874,0 -0.7874,0 z"
       id="text1"
       aria-label="jade24.pl" />
  </g>
</svg>
