<?xml version="1.0" encoding="UTF-8" standalone="no"?>
<!-- Created with Inkscape (http://www.inkscape.org/) -->

<svg
   width="80mm"
   height="80mm"
   viewBox="0 0 79.999999 79.999998"
   version="1.1"
   id="svg1"
   sodipodi:docname="logo_short_square.svg"
   inkscape:version="1.4.3 (0d15f75, 2025-12-25)"
   inkscape:export-filename="logo_short_square.png"
   inkscape:export-xdpi="650.23999"
   inkscape:export-ydpi="650.23999"
   xmlns:inkscape="http://www.inkscape.org/namespaces/inkscape"
   xmlns:sodipodi="http://sodipodi.sourceforge.net/DTD/sodipodi-0.dtd"
   xmlns="http://www.w3.org/2000/svg"
   xmlns:svg="http://www.w3.org/2000/svg">
  <sodipodi:namedview
     id="namedview1"
     pagecolor="#ffffff"
     bordercolor="#000000"
     borderopacity="0.25"
     inkscape:showpageshadow="2"
     inkscape:pageopacity="0.0"
     inkscape:pagecheckerboard="0"
     inkscape:deskcolor="#d1d1d1"
     inkscape:document-units="mm"
     inkscape:zoom="1.5022395"
     inkscape:cx="200.36752"
     inkscape:cy="157.43162"
     inkscape:window-width="1512"
     inkscape:window-height="846"
     inkscape:window-x="0"
     inkscape:window-y="34"
     inkscape:window-maximized="0"
     inkscape:current-layer="layer1" />
  <defs
     id="defs1" />
  <g
     inkscape:groupmode="layer"
     id="layer2"
     inkscape:label="bg"
     style="display:none"
     transform="translate(-9.9999996,-29.354847)" />
  <g
     inkscape:label="Layer 1"
     inkscape:groupmode="layer"
     id="layer1"
     transform="translate(-17.523974,-94.23694)">
    <path
       style="font-size:50.8px;font-family:Honk;-inkscape-font-specification:'Honk, Normal';stroke-width:0.273506"
       d="m 22.523974,128.14543 h 2.100524 q 0,1.44409 0,2.31056 0,0.86647 0,1.68042 0,0.78769 0,2.04803 0,0 0,0 0,0 0,0 0,0 0,0 0,0 0,0 0,1.31281 0,1.99549 0,0.68266 0,1.15529 0,0.44635 0,1.07653 0,0.60389 0,1.81168 h -2.100524 z m 16.331579,0 v 12.078 h -2.100525 q 0,-1.20779 0,-1.81168 0,-0.63018 0,-1.07653 0,-0.47263 0,-1.15529 0,-0.68268 0,-1.99549 0,0 0,0 0,0 0,0 0,0 0,0 0,0 0,0 0,-1.26034 0,-2.04803 0,-0.81395 0,-1.68042 0,-0.86647 0,-2.31056 z m 0,2.67817 h -2.100525 q 0,-0.7877 0,-1.60166 0,-0.8402 0,-1.54913 0,-0.70893 0,-1.12903 0,-0.44636 0,-0.44636 0,0 0,0 0,0 0,0 0,0 0,-0.0788 0,-0.0788 0,-0.31508 0,-0.26256 0,-0.78769 0,-0.55138 0,-1.44412 0,0 0,0 0,0 0,0 0,0 -0.918979,0 -0.892724,0 -2.100525,0 -1.207802,0 -2.126782,0 -0.892722,0 -0.892722,0 0,0 0,-0.28883 0,-0.31507 0,-0.70891 0,-0.39385 0,-0.68268 0,-0.31508 0,-0.31508 0.367591,0 0.813952,0 0.446362,0 1.102776,0 0.682671,0 1.627906,0 0.945237,0 2.284321,0 0.183796,0 0.551387,0 0.367593,0 0.708928,0 0.341334,0 0.472616,0 0.105028,0 0.183797,0 0.105026,0 0.183796,0 0.105026,0 0.210054,0 0,0.81396 0,2.07427 0,1.26031 0,2.65191 0,1.3916 0,2.62566 0,1.23406 0,1.9955 z m -16.331579,0 q 0,-0.76145 0,-1.99551 0,-1.23406 0,-2.62566 0,-1.3916 0,-2.6519 0,-1.26032 0,-2.07427 0.105026,0 0.210053,0 0.07877,0 0.183796,0 0.07877,0 0.183795,0 0.131283,0 0.472619,0 0.341334,0 0.708925,0 0.367593,0 0.551389,0 0.892724,0 1.601649,0 0.735184,0 1.286572,0 0.577644,0 1.024006,0 0.472617,0 0.813953,0 0.367592,0 0.630158,0 0.288822,0 0.525131,0 0,0 0,0.31508 0,0.28881 0,0.68267 0,0.39385 0,0.70892 0,0.28883 0,0.28883 0,0 -0.630158,0 -0.6039,0 -1.522879,0 -0.892724,0 -1.811705,0 -0.892722,0 -1.522878,0 -0.603902,0 -0.603902,0 0,0 0,0 0,0 0,0 0,0.89272 0,1.4441 0,0.52513 0,0.7877 0,0.23631 0,0.31508 0,0.0788 0,0.0788 0,0 0,0 0,0 0,0 0,0 0,0.44635 0,0.4201 0,1.12903 0,0.70893 0,1.54914 0,0.81396 0,1.60165 z m 16.331579,-1.57542 h -2.100525 q 0,0 0,-1.10275 0,-1.10279 0,-2.73069 0,-1.65416 0,-3.28206 0,-1.65418 0,-2.75696 0,-1.10277 0,-1.10277 0,0 0,0 0,0 0,0 0,0 0,0 0,0 0,0 0,0 0,0 0,0 0,0 0,0 0,0 0,0 0,0 -0.892724,0 -1.75919,0 -0.866467,0 -1.654163,0 -0.76144,0 -1.44411,0 -0.682671,0 -1.234059,0 -0.183795,-0.39385 -0.183795,-1.05026 0,-0.65641 0.183795,-1.05026 0,0 0,0 0,0 0,0 0,0 0,0 0,0 0,0 0,0 0.813953,0 0.840211,0 2.048013,0 1.234058,0 2.441858,0 1.234059,0 2.048012,0 0.840211,0 0.840211,0 0,1.20779 0,2.54688 0,1.33908 0,2.75695 0,1.3916 0,2.78319 0,1.36535 0,2.65193 0,1.2603 0,2.3368 z m -16.331579,0 q 0,-1.0765 0,-2.3368 0,-1.28658 0,-2.65193 0,-1.39159 0,-2.78319 0,-1.41787 0,-2.75695 0,-1.33909 0,-2.54688 0,0 0.84021,0 0.813952,0 2.021754,0 1.234059,0 2.44186,0 1.234058,0 2.048011,0 0.840211,0 0.840211,0 0,0 0,0 0,0 0,0 0,0 0,0 0,0 0,0 0.210051,0.39385 0.210051,1.05026 0,0.65641 -0.210051,1.05026 -0.551387,0 -1.234058,0 -0.682672,0 -1.470368,0 -0.76144,0 -1.627907,0 -0.84021,0 -1.759189,0 0,0 0,0 0,0 0,0 0,0 0,0 0,0 0,0 0,0 0,0 0,0 0,0 0,0 0,0 0,0 0,0 0,0 0,1.10277 0,1.10278 0,2.75696 0,1.6279 0,3.28206 0,1.6279 0,2.73069 0,1.10275 0,1.10275 z m 16.331579,10.50264 v 6.19654 q 0,0 0,0.65642 0,0.63016 0,1.57539 0,0.94525 0,1.89048 0,0.94524 0,1.57539 0,0.65641 0,0.65641 0,0 -0.813954,0 -0.787698,0 -1.995498,0 -1.181546,0 -2.389348,0 -1.207802,0 -2.074267,0 -0.84021,0 -0.91898,0 0,0 0,0 0,0 0,0 0,0 0,0 0,0 0,0 0,0 0,0 0,0 0,0 0,0 0,0 0,0 0,0 0,0 0,0 0,0 0,0 0,0 0,0 -0.07877,0 -0.918979,0 -0.84021,0 -2.04801,0 -1.207803,0 -2.389347,0 -1.181547,0 -1.969242,0 -0.813954,0 -0.813954,0 v -12.55062 h 2.100524 v 10.45012 q 0,0 0,0 0,0 0,0 0,0 0,0 0,0 0.787697,0 0.813953,0 1.969242,0 1.181546,0 2.336833,0 1.181546,0 1.969241,0 0.813954,0 0.813954,0 0.07877,0 0.525131,-0.39387 0.446362,-0.39385 1.076517,-0.99773 0.630159,-0.60391 1.23406,-1.23407 0.603901,-0.60391 0.99775,-1.05025 0.420105,-0.44638 0.420105,-0.52514 v -6.24906 z m -2.100531,-5.88147 h 2.100524 q 0,0 0,1.10277 0,1.10278 0,2.75694 0,1.62791 0,3.28208 0,1.6279 0,2.73069 0,1.10277 0,1.10277 0,0 0,0 0,0 0,0 0,0 0,0 0,0 0,0 0,0 0,0 0,0 0,0 0,0 0,0 0,0 0,0 0,0 0,0 0,0 0,0 0,0 0,0 0,0 1.234058,0 1.234058,0 3.045761,0 1.811702,0 3.623406,0 1.811701,0 3.04576,0 1.234059,0 1.234059,0 0,0.49886 0,1.05025 0,0.52513 0,1.05025 0,0 0,0 0,0 0,0 0,0 0,0 0,0 0,0 0,0 0,0 0,0 -1.050264,0 -1.024005,0 -2.651912,0 -1.601649,0 -3.439609,0 -1.837959,0 -3.465864,0 -1.601651,0 -2.625656,0 -1.050263,0 -1.050263,0 0,0 0,0 0,0 0,0 0,0 0,0 0,0 0,0 0,0 0,-0.94522 0,-0.94525 0,-2.41562 0,-1.4966 0,-3.17702 0,-1.68042 0,-3.15079 0,-1.49664 0,-2.44186 z m 27.936976,-3.04575 h -2.100526 v -8.34958 q 0,-0.0788 -0.420104,-0.52514 -0.393848,-0.44636 -0.997749,-1.05028 -0.603902,-0.63015 -1.234058,-1.23405 -0.630158,-0.60391 -1.07652,-0.99775 -0.446361,-0.39384 -0.52513,-0.39384 0,0 0,0 0,0 0,0 0,0 0,0 0,0 0,0 -0.315079,0 -1.181545,0 -0.84021,0 -1.942986,0 -1.076517,0 -2.153036,0 -1.050263,0 -1.785447,0 -0.735182,0 -0.866466,0 0,-0.52514 0,-1.05027 0,-0.55139 0,-1.05026 0,0 0,0 0,0 0,0 0,0 0,0 0,0 0,0 0,0 0,0 0,0 1.024006,0 1.050262,0 2.651912,0 1.627906,0 3.465866,0 1.837957,0 3.439608,0 1.627907,0 2.651912,0 1.050263,0 1.050263,0 0,0 0,0 0,0 0,0 0,0 0,0 0,0 0,0 0,0 0,0.73518 0,0.73519 0,1.9955 0,1.26031 0,2.80947 0,1.54912 0,3.20329 0,1.65417 0,3.17704 0,1.52288 0,2.73069 z m 0,3.04575 q 0,0 0,0.94524 0,0.94522 0,2.44186 0,1.47037 0,3.15079 0,1.68042 0,3.17702 0,1.47037 0,2.41562 0,0.94522 0,0.94522 0,0 0,0 0,0 0,0 0,0 0,0 0,0 0,0 0,0 -1.050263,0 -1.024005,0 -2.651912,0 -1.601651,0 -3.439608,0 -1.83796,0 -3.465866,0 -1.60165,0 -2.651912,0 -1.024006,0 -1.024006,0 0,0 0,0 0,0 0,0 0,0 0,0 0,0 0,0 0,0 0,0 0,-0.52512 0,-1.05025 0,-0.55139 0,-1.05025 0,0 1.234058,0 1.234058,0 3.04576,0 1.811703,0 3.623407,0 1.811701,0 3.045759,0 1.234057,0 1.234057,0 0,0 0,0 0,0 0,0 0,0 0,0 0,0 0,0 0,0 0,0 0,0 0,0 0,0 0,0 0,0 0,0 0,0 0,0 0,0 0,0 0,0 0,0 0,0 0,-1.10277 0,-1.10279 0,-2.73069 0,-1.65417 0,-3.28208 0,-1.65416 0,-2.75694 0,-1.10277 0,-1.10277 z m -27.936976,-4.62117 q 0,0 0,-0.94521 0,-0.94524 0,-2.41562 0,-1.49661 0,-3.17703 0,-1.68043 0,-3.1508 0,-1.49662 0,-2.44185 0,-0.94524 0,-0.94524 0,0 0,0 0,0 0,0 0,0 0,0 0,0 0,0 0,0 1.050263,0 1.024005,0 2.625656,0 1.627905,0 3.465864,0 1.83796,0 3.439609,0 1.627907,0 2.651912,0 1.050264,0 1.050264,0 0,0 0,0 0,0 0,0 0,0 0,0 0,0 0,0 0,0 0,0 0,0.49887 0,1.05026 0,0.52513 0,1.05027 0,0 -1.234059,0 -1.234059,0 -3.04576,0 -1.811704,0 -3.623406,0 -1.811703,0 -3.045761,0 -1.234058,0 -1.234058,0 0,0 0,0 0,0 0,0 0,0 0,0 0,0 0,0 0,0 0,0 0,0 0,0 0,0 0,0 0,0 0,0 0,0 0,0 0,0 0,0 0,0 0,0 0,0 0,1.10276 0,1.10278 0,2.75696 0,1.6279 0,3.28206 0,1.6279 0,2.73069 0,1.10276 0,1.10276 z m 27.936976,12.55066 h -2.100526 q 0,0 0,-2.07428 0,-2.10053 0,-6.85297 0,0 0,-0.13127 0,-0.13129 0,-0.13129 0,0 0,-0.13128 0,-0.13128 0,-0.13128 0,-5.17254 0,-7.56189 0,-2.4156 0,-2.4156 h 2.100526 z m -27.936976,0 v -19.42986 h 2.100524 q 0,0 0,2.4156 0,2.38935 0,7.56189 0,0 0,0.13128 0,0.13128 0,0.13128 0,0 0,0.13129 0,0.13127 0,0.13127 0,4.75244 0,6.85297 0,2.07428 0,2.07428 z m 1.050263,-14.33609 h 0.997748 q 0,0 0,0.18379 0,0.1838 0,0.36759 0,0.1838 0,0.1838 0,0 1.050262,-0.15753 1.076519,-0.15756 2.625656,-0.3676 1.575393,-0.23631 3.12453,-0.44635 1.575394,-0.23632 2.625655,-0.39386 1.076519,-0.15753 1.076519,-0.15753 0,0 0,0.10502 0.02626,0.10503 0.05251,0.34133 0.05251,0.21005 0.105027,0.55139 0.05251,0.34133 0.07877,0.57765 0.05251,0.2363 0.05251,0.36759 0.02626,0.10501 0.02626,0.10501 0,0 -1.102775,0.15756 -1.076518,0.15753 -2.704425,0.39383 -1.601651,0.23632 -3.229555,0.47264 -1.601651,0.2363 -2.704427,0.39384 -1.076519,0.15754 -1.076519,0.15754 0,0 0,0.26256 0,0.23631 0,0.49888 0,0.2363 0,0.2363 h -0.997752 z m 25.783937,8.50712 h -0.99775 q 0,0 0,-0.1838 0,-0.18379 0,-0.36759 0,-0.18379 0,-0.18379 0,0 -1.076518,0.15753 -1.050261,0.15755 -2.625655,0.39385 -1.549138,0.21005 -3.124531,0.44636 -1.549136,0.21006 -2.625655,0.36759 -1.050262,0.15756 -1.050262,0.15756 0,0 -0.02626,-0.10504 0,-0.10504 -0.05251,-0.31508 -0.02626,-0.2363 -0.07877,-0.57765 -0.05251,-0.34133 -0.105027,-0.57764 -0.02626,-0.23631 -0.05251,-0.34133 0,-0.13128 0,-0.13128 0,0 1.076518,-0.15755 1.102776,-0.15753 2.704425,-0.39384 1.627907,-0.23631 3.229557,-0.47262 1.627906,-0.23631 2.704425,-0.39385 1.102775,-0.15753 1.102775,-0.15753 0,0 0,-0.23632 0,-0.26257 0,-0.49888 0,-0.26256 0,-0.26256 h 0.997749 z m 28.934752,-4.25356 v 15.22879 q 0,0 -1.12903,0 -1.102772,0 -2.88822,0 -1.759189,0 -3.728431,0 -1.969242,0 -3.754686,0 -1.759191,0 -2.888223,0 -1.102774,0 -1.102774,0 0,0 0,0 0,0 0,0 0,0 0,0 0,0 0,0 0,0 0,0 0,0 0,0 0,0 0,0 0,0 0,0 0,0 0,0 0,0 0,0 0,0 0,0 0,0 0,0 0,0 0,0 0,0 0,0 0,0 0,0 0,0 0,0 0,0 0,0 0,0 0,0 0,0 0,0 0,0 0,0 0,0 0,0 0,0 0,0 0,0 0,0 0,0 0,0 0,0 0,0 0,0 0,0 0,0 0,0 0,0 0,0 0,0 0,0 0,0 -0.131283,0 -0.131282,0 -0.787697,0 -0.656414,0 -2.205551,0 -1.522879,0 -4.25356,0 -2.730684,0 -7.063015,0 v -15.70142 h 2.100525 q 0,0 0,0 0,0 0,0 0,0 0,0.94525 0,0.94524 0,2.33683 0,1.39161 0,2.7832 0,1.39161 0,2.33683 0,0.94524 0,0.94524 0,0 0,0 0,0 0,0 0,0 0,0 0,0 0,0 0,0 0,0 0,0 0,0 0,0 0,0 0,0 0,0 0,0 0,0 0,0 0.997748,0 1.024007,0 2.599399,0 1.575394,0 3.36084,0 1.785445,0 3.360839,0 1.575393,0 2.573142,0 1.024007,0 1.024007,0 0,0 0,0 0,0 0,0 0,0 0,0 0,0 0,0 v 4.25357 q 0,0 0,0 0,0 0,0 0,0 0.840209,0 0.866466,0 1.995499,0 1.129031,0 1.969242,0 0.866464,0 0.866464,0 0,0 0.918981,0 0.945236,0 2.153037,0 1.207802,0 2.126783,0 0.945231,0 0.945231,0 0,0 0,0 0,0 0,0 v -13.12828 z m -29.93247,0.13128 0.05251,-15.67516 q 0,0 0,0 0,0 0,0 0,0 0,0 0,0 0,0 0.787695,0 1.549135,0 0.787696,0 1.52288,0 0.76144,0 1.444111,0 0.68267,0 1.234058,0 0.551388,0 0.945236,0 0.420105,0 0.6039,0 0.05251,0 0.341336,0 0.315078,0 0.866467,0 0.577643,0 1.339085,0 0.787695,0 1.732931,0 0.971493,0 2.100524,0 1.129032,0 2.389348,0 0,0 0,0 0,0 0,0 0,0 0,0 0,0.49887 0,1.05026 0,0.52513 0,1.05026 0,0 -0.551387,0 -0.551389,0 -1.286573,0 -0.735182,0 -1.28657,0 -0.551389,0 -0.551389,0 0,0 0,0 0,0 0,0 0,0 0,0 0,0 0,0 -0.02626,0 -0.813953,0.76144 -0.761439,0.73518 -1.942985,1.94299 -1.155288,1.18155 -2.468116,2.52062 -1.312827,1.33908 -2.494373,2.5469 -1.155289,1.20779 -1.890472,1.9955 -0.735183,0.76143 -0.735183,0.78769 0,0 0,0 0,0 0,0 0,0 0,0 0,0 0,0 0,0.23631 0,0.65641 0,0.39385 0,0.86646 0,0.47263 0,0.89272 0,0.39387 0,0.60391 z m 29.93247,-2.59941 H 90.42345 q 0,0 0,-1.10275 0,-1.10279 0,-2.73069 0,-1.65416 0,-3.28206 0,-1.65418 0,-2.75696 0,-1.10277 0,-1.10277 0,0 0,0 0,0 0,0 0,0 0,0 0,0 0,0 0,0 0,0 0,0 0,0 0,0 0,0 0,0 0,0 0,0 0,0 0,0 0,0 0,0 0,0 0,0 -1.234058,0 -1.234057,0 -3.045757,0 -1.811703,0 -3.623404,0 -1.811703,0 -3.045762,0 -1.234057,0 -1.234057,0 0,-0.52513 0,-1.05026 0,-0.55139 0,-1.05026 0,0 0,0 0,0 0,0 0,0 0,0 0,0 0,0 0,0 0,0 0,0 1.024004,0 1.050263,0 2.651913,0 1.627907,0 3.465866,0 1.837957,0 3.439606,0 1.627905,0 2.651916,0 1.050257,0 1.050257,0 0,0 0,0 0,0 0,0 0,0 0,0 0,0 0,0 0,0 0,0.94523 0,0.94524 0,2.44186 0,1.47037 0,3.15079 0,1.68042 0,3.17703 0,1.47038 0,2.41562 z m 0,7.82446 H 90.42345 q 0,0 0,-0.81395 0,-0.84021 0,-1.94299 0,-1.10277 0,-1.91673 0,-0.8402 0,-0.8402 0,0 0,0 0,0 0,0 0,0 0,0 0,0 0,0 0,0 0,-0.81396 0,-0.84021 0,-1.94298 0,-1.10277 0,-1.91671 0,-0.84021 0,-0.84021 h 2.100524 z M 77.03261,133.18667 q 0,0 0,-0.97148 0,-0.99776 0,-2.28433 0,-1.28657 0,-2.25806 0,-0.99774 0,-0.99774 0,0 0,0 0,0 0,0 0,-0.15755 0.02626,-0.18381 0.02626,-0.0262 0.183796,-0.0262 0.288823,0 0.551388,0 0.288822,0 0.551387,0 0.288822,0 0.577645,0 0.157539,0 0.183795,0.0262 0.02626,0.0263 0.02626,0.18381 0,0 0,0 0,0 0,0 0,0 0,0.99774 0,0.97149 0,2.25806 0,1.28657 0,2.28433 0,0.97148 0,0.97148 0,0 0,0 0,0 0,0 0,0 0,0 0,0 0,0 0,0 0,0 0,0 0,0 0,0 0,0 0,0.15755 -0.02626,0.18381 -0.02626,0.0262 -0.183795,0.0262 -0.420105,0 -0.84021,0 -0.393848,0 -0.84021,0 -0.157539,0 -0.183796,-0.0262 -0.02626,-0.0264 -0.02626,-0.18381 z"
       id="text1"
       aria-label="j24" />
  </g>
</svg>
